<svg
    xmlns="http://www.w3.org/2000/svg"
    width="91"
    height="40"
    viewBox="0 0 91 40"
    fill="none"
>
    <g clip-path="url(#clip0_5178_30882)">
        <path d="M36.5552 17.8898H15.0864V25.0453H36.5552V17.8898Z" fill="#14C225" />
        <path
            d="M15.0863 10.7461C17.7277 10.7461 20.0316 12.1804 21.2668 14.3109H28.9473C27.3582 8.13748 21.7543 3.57654 15.0863 3.57654C7.1832 3.57888 0.775391 9.98669 0.775391 17.8898C0.775391 25.7929 7.1832 32.2008 15.0863 32.2008V25.0312C11.1418 25.0312 7.94258 21.8344 7.94258 17.8875C7.94258 13.9406 11.1395 10.7437 15.0863 10.7437V10.7461Z"
            fill="#14C225"
        />
        <path
            d="M22.2161 25.0453C22.188 28.964 19.0099 32.1351 15.0864 32.1492V39.3304C22.9755 39.3164 29.3692 32.9297 29.3974 25.0453H22.2138H22.2161Z"
            fill="#14C225"
        />
        <path
            d="M42.7148 6.96797H45.5016V12.6047C44.0508 13.7555 42.0539 14.3719 40.1719 14.3719C36.0281 14.3719 32.9766 11.3742 32.9766 7.18594C32.9766 2.99766 36.0281 0 40.2281 0C42.5437 0 44.4656 0.834375 45.7477 2.40234L43.7883 4.30781C42.8273 3.23672 41.7164 2.73984 40.3781 2.73984C37.8164 2.73984 36.0656 4.54688 36.0656 7.18594C36.0656 9.825 37.8164 11.632 40.3406 11.632C41.1703 11.632 41.9414 11.4727 42.7148 11.0367V6.96797Z"
            fill="#FEFEFE"
        />
        <path
            d="M54.0543 3.57892V6.41017C53.8105 6.39142 53.6207 6.37032 53.3957 6.37032C51.7762 6.37032 50.7027 7.29376 50.7027 9.31876V14.3133H47.7637V3.57892H50.5691V5.13282C51.284 4.11095 52.491 3.57892 54.0543 3.57892Z"
            fill="#FEFEFE"
        />
        <path
            d="M65.9534 9.79685H58.287C58.5706 11.0953 59.644 11.8898 61.1886 11.8898C62.262 11.8898 63.0354 11.5594 63.7315 10.882L65.2948 12.6258C64.3526 13.7297 62.9417 14.3109 61.1136 14.3109C57.6097 14.3109 55.3315 12.0445 55.3315 8.94373C55.3315 5.84294 57.6472 3.57654 60.7362 3.57654C63.8253 3.57654 66.0097 5.62966 66.0097 8.98123C66.0097 9.21326 65.9722 9.54373 65.9534 9.79451V9.79685ZM58.2495 8.03435H63.2417C63.0354 6.71716 62.0745 5.86404 60.755 5.86404C59.4354 5.86404 58.4581 6.69607 58.2495 8.03435Z"
            fill="#FEFEFE"
        />
        <path
            d="M78.2088 9.79685H70.5424C70.826 11.0953 71.8994 11.8898 73.4439 11.8898C74.5174 11.8898 75.2908 11.5594 75.9869 10.882L77.5502 12.6258C76.608 13.7297 75.1947 14.3109 73.3689 14.3109C69.865 14.3109 67.5869 12.0445 67.5869 8.94373C67.5869 5.84294 69.9025 3.57654 72.9916 3.57654C76.0807 3.57654 78.265 5.62966 78.265 8.98123C78.265 9.21326 78.2275 9.54373 78.2088 9.79451V9.79685ZM70.5049 8.03435H75.4971C75.2908 6.71716 74.3299 5.86404 73.0104 5.86404C71.6908 5.86404 70.7135 6.69607 70.5049 8.03435Z"
            fill="#FEFEFE"
        />
        <path
            d="M90.225 8.25704V14.311H87.2859V8.72814C87.2859 7.0172 86.5336 6.23204 85.2328 6.23204C83.8195 6.23204 82.8023 7.13673 82.8023 9.08204V14.311H79.8633V3.57892H82.6688V4.97579C83.4609 4.07111 84.6469 3.57892 86.0203 3.57892C88.4133 3.57892 90.2203 5.03439 90.2203 8.25704H90.225Z"
            fill="#FEFEFE"
        />
        <path
            d="M49.7834 16.6664V17.9133H47.4912V25.0453H46.0803V17.9133H43.7764V16.6664H49.7834Z"
            fill="#FEFEFE"
        />
        <path
            d="M58.4693 22.0125H53.2545C53.2967 22.5632 53.4982 23.0062 53.8615 23.3414C54.2248 23.6765 54.6701 23.8429 55.1998 23.8429C55.9592 23.8429 56.4959 23.5218 56.81 22.8773H58.3334C58.1271 23.5125 57.7521 24.0328 57.2131 24.4382C56.6717 24.8437 56.0014 25.0453 55.1998 25.0453C54.5482 25.0453 53.9623 24.8976 53.4467 24.6C52.9311 24.3047 52.5256 23.8851 52.2326 23.3461C51.9396 22.807 51.792 22.1836 51.792 21.4734C51.792 20.7632 51.935 20.1375 52.2186 19.6007C52.5045 19.0617 52.9029 18.6468 53.4209 18.3539C53.9365 18.0609 54.5295 17.9156 55.1975 17.9156C55.8654 17.9156 56.4162 18.0586 56.9201 18.3422C57.424 18.6257 57.8154 19.0242 58.0967 19.5398C58.3779 20.0531 58.5186 20.6437 58.5186 21.314C58.5186 21.5742 58.5021 21.8062 58.4693 22.0172V22.0125ZM57.0443 20.8593C57.035 20.332 56.8498 19.9101 56.4865 19.5937C56.1232 19.2773 55.6732 19.1179 55.1365 19.1179C54.649 19.1179 54.2318 19.275 53.885 19.589C53.5381 19.9031 53.3318 20.3273 53.2662 20.8617H57.0443V20.8593Z"
            fill="#FEFEFE"
        />
        <path
            d="M61.4647 19.6055C61.7507 19.0711 62.1374 18.6562 62.6296 18.3586C63.1218 18.0609 63.6632 17.9133 64.2585 17.9133C64.7952 17.9133 65.264 18.0187 65.6647 18.232C66.0655 18.4453 66.3843 18.7101 66.6257 19.0289V17.8898H68.0507V25.0453H66.6257V23.9039C66.3866 24.2297 66.0608 24.5016 65.646 24.7195C65.2335 24.9375 64.7624 25.0453 64.2351 25.0453C63.6491 25.0453 63.1124 24.893 62.6249 24.5883C62.1374 24.2836 61.7507 23.857 61.4671 23.3109C61.1812 22.7648 61.0405 22.1437 61.0405 21.45C61.0405 20.7562 61.1835 20.1422 61.4671 19.6078L61.4647 19.6055ZM66.3327 20.2336C66.1382 19.882 65.8851 19.6148 65.571 19.432C65.2569 19.2492 64.9194 19.1555 64.5562 19.1555C64.1929 19.1555 63.8554 19.2445 63.5413 19.425C63.2272 19.6055 62.9741 19.868 62.7796 20.2148C62.5851 20.5617 62.489 20.9742 62.489 21.45C62.489 21.9258 62.5851 22.3453 62.7796 22.7039C62.9741 23.0625 63.2296 23.3367 63.5483 23.5242C63.8671 23.7117 64.2022 23.8055 64.5585 23.8055C64.9147 23.8055 65.2593 23.714 65.5733 23.5289C65.8874 23.3461 66.1405 23.0766 66.3351 22.7203C66.5296 22.3664 66.6257 21.9492 66.6257 21.4734C66.6257 20.9976 66.5296 20.5828 66.3351 20.2336H66.3327Z"
            fill="#FEFEFE"
        />
        <path
            d="M80.667 18.2531C81.0912 18.4781 81.4264 18.8133 81.6701 19.2562C81.9139 19.6992 82.0357 20.2336 82.0357 20.8594V25.0453H80.6365V21.0726C80.6365 20.4539 80.4842 19.9805 80.1771 19.65C79.8725 19.3195 79.4553 19.1555 78.9256 19.1555C78.3959 19.1555 77.9787 19.3195 77.6693 19.65C77.36 19.9805 77.2053 20.4539 77.2053 21.0726V25.0453H75.8061V21.0726C75.8061 20.4539 75.6537 19.9805 75.3467 19.65C75.042 19.3195 74.6248 19.1555 74.0951 19.1555C73.5654 19.1555 73.1482 19.3195 72.8389 19.65C72.5295 19.9805 72.3748 20.4539 72.3748 21.0726V25.0453H70.9639V17.8898H72.3748V18.818C72.6068 18.5344 72.8998 18.3117 73.2537 18.1547C73.6076 17.9953 73.9873 17.9156 74.3928 17.9156C74.9389 17.9156 75.424 18.0328 75.8553 18.2672C76.2842 18.5016 76.6146 18.839 76.8467 19.282C77.0529 18.8648 77.374 18.532 77.8123 18.2859C78.2506 18.0398 78.7217 17.9156 79.2232 17.9156C79.76 17.9156 80.2404 18.0281 80.667 18.2531Z"
            fill="#FEFEFE"
        />
        <path
            d="M86.1045 24.7523C85.6803 24.5555 85.3428 24.2883 85.0943 23.9508C84.8459 23.6133 84.7146 23.2336 84.6982 22.8164H86.1607C86.1865 23.1094 86.3248 23.3531 86.5756 23.55C86.8264 23.7469 87.1428 23.8453 87.5225 23.8453C87.9021 23.8453 88.2256 23.768 88.4459 23.6133C88.6639 23.4586 88.774 23.2594 88.774 23.018C88.774 22.7602 88.6521 22.5656 88.4084 22.4414C88.1646 22.3172 87.7779 22.1789 87.2506 22.0266C86.7373 21.8836 86.3225 21.7477 85.999 21.6141C85.6779 21.4805 85.399 21.2766 85.1623 21C84.9279 20.7234 84.8084 20.3602 84.8084 19.9102C84.8084 19.5422 84.9162 19.207 85.1295 18.9023C85.3451 18.5977 85.6521 18.3563 86.0529 18.1805C86.4537 18.0047 86.9131 17.918 87.4334 17.918C88.2092 17.918 88.835 18.1172 89.3107 18.5133C89.7865 18.9094 90.0396 19.4508 90.0725 20.1375H88.6615C88.6357 19.8281 88.5139 19.582 88.2889 19.3969C88.0662 19.2141 87.7639 19.1203 87.3842 19.1203C87.0045 19.1203 86.7279 19.1906 86.5287 19.3336C86.3295 19.4766 86.231 19.6641 86.231 19.8984C86.231 20.0813 86.2967 20.2359 86.4303 20.3625C86.5615 20.4867 86.7232 20.5852 86.9131 20.6578C87.1029 20.7281 87.3842 20.8195 87.7545 20.9273C88.249 21.0609 88.6568 21.1969 88.9756 21.3352C89.2943 21.4734 89.5685 21.675 89.7982 21.9422C90.0303 22.2094 90.1498 22.5656 90.1568 23.0086C90.1568 23.4023 90.049 23.7516 89.8357 24.0609C89.6201 24.3703 89.3178 24.6117 88.9264 24.7875C88.535 24.9633 88.0732 25.05 87.5459 25.05C87.0186 25.05 86.5287 24.9516 86.1021 24.7547L86.1045 24.7523Z"
            fill="#FEFEFE"
        />
    </g>
    <defs>
        <clipPath id="clip0_5178_30882">
            <rect
                width="89.4492"
                height="39.3305"
                fill="white"
                transform="translate(0.775391)"
            />
        </clipPath>
    </defs>
</svg>