<svg width="20" height="20" viewBox="0 0 20 20" fill="none" xmlns="http://www.w3.org/2000/svg">
<path d="M12 8V6.48C12 5.77 11.29 5.29 10.63 5.55L7 7V6.52C7 5.8 6.27 5.31 5.61 5.6L1.21 7.48C0.48 7.8 0 8.52 0 9.32V18C0 19.1 0.9 20 2 20H18C19.1 20 20 19.1 20 18V8H12ZM7 15C7 15.55 6.55 16 6 16C5.45 16 5 15.55 5 15V13C5 12.45 5.45 12 6 12C6.55 12 7 12.45 7 13V15ZM11 15C11 15.55 10.55 16 10 16C9.45 16 9 15.55 9 15V13C9 12.45 9.45 12 10 12C10.55 12 11 12.45 11 13V15ZM15 15C15 15.55 14.55 16 14 16C13.45 16 13 15.55 13 15V13C13 12.45 13.45 12 14 12C14.55 12 15 12.45 15 13V15ZM18.12 0H16.89C16.38 0 15.96 0.38 15.9 0.88L15.2 6.5H19.8L19.11 0.88C19.05 0.38 18.62 0 18.12 0Z" fill="#F9FAFB"/>
</svg>
