<svg width="18" height="12" viewBox="0 0 18 12" fill="none" xmlns="http://www.w3.org/2000/svg">
<path d="M14.7275 0.272563C14.4639 0.00895862 14.0365 0.00895867 13.7729 0.272563C13.5093 0.536166 13.5093 0.963553 13.7729 1.22716C16.4089 3.8632 16.4089 8.13706 13.7729 10.7731C13.5093 11.0367 13.5093 11.4641 13.7729 11.7277C14.0365 11.9913 14.4639 11.9913 14.7275 11.7277C17.8907 8.56445 17.8907 3.43581 14.7275 0.272563Z" fill="#E5E7EB"/>
<path d="M4.22693 1.22716C4.49054 0.963553 4.49054 0.536166 4.22693 0.272563C3.96333 0.00895867 3.53594 0.00895862 3.27234 0.272563C0.109091 3.43581 0.109091 8.56445 3.27234 11.7277C3.53594 11.9913 3.96333 11.9913 4.22693 11.7277C4.49054 11.4641 4.49054 11.0367 4.22693 10.7731C1.59089 8.13706 1.59089 3.8632 4.22693 1.22716Z" fill="#E5E7EB"/>
<path d="M11.2273 2.81815C11.4909 2.55455 11.9183 2.55455 12.1819 2.81815C13.9392 4.57551 13.9392 7.42475 12.1819 9.18211C11.9183 9.44572 11.4909 9.44572 11.2273 9.18211C10.9637 8.91851 10.9637 8.49112 11.2273 8.22752C12.4574 6.99737 12.4574 5.0029 11.2273 3.77275C10.9637 3.50914 10.9637 3.08176 11.2273 2.81815Z" fill="#E5E7EB"/>
<path d="M6.77252 2.81815C7.03612 3.08176 7.03612 3.50914 6.77252 3.77275C5.54236 5.0029 5.54236 6.99737 6.77252 8.22752C7.03612 8.49112 7.03612 8.91851 6.77252 9.18211C6.50891 9.44572 6.08153 9.44572 5.81792 9.18211C4.06056 7.42475 4.06056 4.57551 5.81792 2.81815C6.08153 2.55455 6.50891 2.55455 6.77252 2.81815Z" fill="#E5E7EB"/>
<path d="M9.8999 6.00011C9.8999 6.49717 9.49696 6.90011 8.9999 6.90011C8.50285 6.90011 8.0999 6.49717 8.0999 6.00011C8.0999 5.50306 8.50285 5.10011 8.9999 5.10011C9.49696 5.10011 9.8999 5.50306 9.8999 6.00011Z" fill="#E5E7EB"/>
</svg>
