<svg width="24" height="22" viewBox="0 0 24 22" fill="none" xmlns="http://www.w3.org/2000/svg">
<path d="M19 15C17.8 15 16.7417 14.625 15.825 13.875C14.9083 13.125 14.3333 12.1667 14.1 11H11.125L9.925 9H14.1C14.1833 8.63333 14.296 8.28333 14.438 7.95C14.58 7.61667 14.7673 7.3 15 7H8.7L7.5 5H16.05L14.95 2H11V0H14.95C15.3833 0 15.7667 0.121 16.1 0.363C16.4333 0.605 16.675 0.925667 16.825 1.325L18.175 5H19C20.3833 5 21.5627 5.48767 22.538 6.463C23.5133 7.43833 24.0007 8.61733 24 10C24 11.3833 23.5123 12.5627 22.537 13.538C21.5617 14.5133 20.3827 15.0007 19 15ZM19 13C19.8333 13 20.5417 12.7083 21.125 12.125C21.7083 11.5417 22 10.8333 22 10C22 9.16667 21.7083 8.45833 21.125 7.875C20.5417 7.29167 19.8333 7 19 7H18.925L19.9 9.675L18 10.35L17.05 7.725C16.7167 8.00833 16.4583 8.35 16.275 8.75C16.0917 9.15 16 9.56667 16 10C16 10.8333 16.2917 11.5417 16.875 12.125C17.4583 12.7083 18.1667 13 19 13ZM7 22C6.16667 22 5.45833 21.7083 4.875 21.125C4.29167 20.5417 4 19.8333 4 19H0V13H2V10H0V8H7L10 13H12C12.55 13 13.021 13.196 13.413 13.588C13.805 13.98 14.0007 14.4507 14 15V17C14 17.55 13.8043 18.021 13.413 18.413C13.0217 18.805 12.5507 19.0007 12 19H10C10 19.8333 9.70833 20.5417 9.125 21.125C8.54167 21.7083 7.83333 22 7 22ZM4 13H7.675L5.875 10H4V13ZM7 20C7.28333 20 7.521 19.904 7.713 19.712C7.905 19.52 8.00067 19.2827 8 19C8 18.7167 7.904 18.4793 7.712 18.288C7.52 18.0967 7.28267 18.0007 7 18C6.71667 18 6.47933 18.096 6.288 18.288C6.09667 18.48 6.00067 18.7173 6 19C6 19.2833 6.096 19.521 6.288 19.713C6.48 19.905 6.71733 20.0007 7 20Z" fill="#F9FAFB"/>
</svg>
