<svg width="20" height="20" viewBox="0 0 20 20" fill="none" xmlns="http://www.w3.org/2000/svg">
<path d="M9.90359 -0.000125517C9.75288 0.0177392 9.61083 0.0797832 9.4953 0.178198C9.37978 0.276613 9.29594 0.407001 9.25435 0.552951L7.76435 5.4568L4.68743 3.84603C4.45666 3.69218 4.14897 3.75987 3.9182 3.99064C3.68743 4.22141 3.69205 4.4568 3.84589 4.68757L5.45666 7.76449L0.552817 9.25372C0.387181 9.29595 0.240329 9.39215 0.135449 9.52713C0.0305678 9.6621 -0.0263672 9.82817 -0.0263672 9.9991C-0.0263672 10.17 0.0305678 10.3361 0.135449 10.4711C0.240329 10.6061 0.387181 10.7023 0.552817 10.7445L5.43205 12.2106L3.84589 15.3122C3.69205 15.543 3.75974 15.8506 3.99051 16.0814C4.14436 16.2353 4.31743 16.2983 4.47128 16.2983C4.5482 16.2983 4.68282 16.303 4.75974 16.226L7.81205 14.6391L9.25435 19.4468C9.29659 19.6124 9.39278 19.7593 9.52776 19.8642C9.66274 19.969 9.8288 20.026 9.99974 20.026C10.1707 20.026 10.3367 19.969 10.4717 19.8642C10.6067 19.7593 10.7029 19.6124 10.7451 19.4468L12.2113 14.5676L15.2405 16.1537C15.3174 16.2306 15.4513 16.226 15.529 16.226C15.6828 16.226 15.8559 16.163 16.0097 16.0091C16.2405 15.7783 16.2305 15.4706 16.1536 15.2399L14.5428 12.2353L19.4467 10.7453C19.6123 10.703 19.7591 10.6068 19.864 10.4719C19.9689 10.3369 20.0258 10.1708 20.0258 9.99987C20.0258 9.82894 19.9689 9.66287 19.864 9.5279C19.7591 9.39292 19.6123 9.29672 19.4467 9.25449L14.6151 7.78834L16.1536 4.68757C16.3074 4.4568 16.2405 4.14911 16.009 3.91834C15.7782 3.68757 15.4705 3.6968 15.2397 3.77372L12.1882 5.36141L10.7451 0.552951C10.6948 0.374998 10.582 0.221143 10.4274 0.119569C10.2729 0.0179955 10.0869 -0.0244973 9.90359 -0.000125517ZM9.99974 3.43757V9.99987L11.6105 8.3891C11.6976 8.47745 11.8047 8.54343 11.9228 8.58141L16.562 9.99987H9.99974L11.6105 11.6106C11.5222 11.6977 11.4562 11.8049 11.4182 11.923L9.99974 16.5622V9.99987L8.38897 11.6106C8.3019 11.5223 8.19475 11.4563 8.07666 11.4183L3.43743 9.99987H9.99974L8.38897 8.3891C8.47732 8.30203 8.54329 8.19488 8.58128 8.0768L9.99974 3.43757Z" fill="#E5E7EB"/>
</svg>
