<svg width="372" height="228" viewBox="0 0 372 228" fill="none" xmlns="http://www.w3.org/2000/svg">
<rect width="3" height="164" rx="1.5" fill="url(#paint0_linear_3144_135345)"/>
<rect opacity="0.2" x="13" width="348" height="31.8" fill="#374151" fill-opacity="0.8"/>
<rect opacity="0.8" x="13" y="31.7998" width="348" height="1" fill="#0C0C0D"/>
<rect opacity="0.2" x="13" y="32.7998" width="348" height="31.8" fill="#374151" fill-opacity="0.8"/>
<rect opacity="0.8" x="13" y="64.6001" width="348" height="1" fill="#F23030"/>
<rect opacity="0.2" x="13" y="65.6001" width="348" height="31.8" fill="#374151" fill-opacity="0.8"/>
<rect opacity="0.8" x="13" y="97.3999" width="348" height="1" fill="#FBBF24"/>
<rect opacity="0.2" x="13" y="98.3999" width="348" height="31.8" fill="#374151" fill-opacity="0.8"/>
<rect opacity="0.8" x="13" y="130.2" width="348" height="1" fill="#01A9DB"/>
<rect opacity="0.2" x="13" y="131.2" width="348" height="31.8" fill="#374151" fill-opacity="0.8"/>
<rect opacity="0.8" x="13" y="163" width="348" height="1" fill="#22AD5C"/>
<g filter="url(#filter0_bd_3144_135345)">
<path d="M13 70L20.2708 68.5756C27.5417 67.1512 42.0833 64.3024 56.625 61.3416C71.1667 58.3808 85.7083 55.308 100.25 50.7594C114.792 46.2108 129.333 40.1864 143.875 41.2137C158.417 42.241 172.958 50.32 187.5 50.2445C202.042 50.1689 216.583 41.9388 231.125 38.5737C245.667 35.2087 260.208 36.7087 274.75 41.5744C289.292 46.4401 303.833 54.6715 318.375 53.3033C332.917 51.9352 347.458 40.9676 354.729 35.4838L362 30" stroke="#AA52DD" stroke-width="3" stroke-linecap="round"/>
</g>
<g filter="url(#filter1_bd_3144_135345)">
<path d="M13 74L20.2708 72.4191C27.5417 70.8382 42.0833 67.6764 56.625 64.3691C71.1667 61.0617 85.7083 57.6088 100.25 52.2373C114.792 46.8657 129.333 39.5757 143.875 41.4528C158.417 43.33 172.958 54.3744 187.5 54.8178C202.042 55.2613 216.583 45.1037 231.125 41.2708C245.667 37.4379 260.208 39.9296 274.75 46.7967C289.292 53.6638 303.833 64.9062 318.375 63.6693C332.917 62.4325 347.458 48.7162 354.729 41.8581L362 35" stroke="#1BD5A6" stroke-width="3" stroke-linecap="round"/>
</g>
<g filter="url(#filter2_d_3144_135345)">
<circle cx="184" cy="55" r="12" fill="#1BD5A6"/>
<circle cx="184" cy="55" r="8.86957" stroke="#111928" stroke-opacity="0.8" stroke-width="6.26087"/>
</g>
<g filter="url(#filter3_d_3144_135345)">
<rect x="136" y="75" width="96" height="36" rx="4" fill="#111928" shape-rendering="crispEdges"/>
<path d="M184 70L177.072 76.75L190.928 76.75L184 70Z" fill="#111928"/>
<path d="M148.903 97V96.233L151.784 93.0795C152.122 92.7102 152.401 92.3892 152.619 92.1165C152.838 91.8409 153 91.5824 153.105 91.3409C153.213 91.0966 153.267 90.8409 153.267 90.5739C153.267 90.267 153.193 90.0014 153.045 89.777C152.901 89.5526 152.702 89.3793 152.449 89.2571C152.196 89.1349 151.912 89.0739 151.597 89.0739C151.261 89.0739 150.969 89.1435 150.719 89.2827C150.472 89.419 150.28 89.6108 150.143 89.858C150.01 90.1051 149.943 90.3949 149.943 90.7273H148.938C148.938 90.2159 149.055 89.767 149.291 89.3807C149.527 88.9943 149.848 88.6932 150.254 88.4773C150.663 88.2614 151.122 88.1534 151.631 88.1534C152.142 88.1534 152.595 88.2614 152.99 88.4773C153.385 88.6932 153.695 88.9844 153.919 89.3509C154.143 89.7173 154.256 90.125 154.256 90.5739C154.256 90.8949 154.197 91.2088 154.081 91.5156C153.967 91.8196 153.768 92.1591 153.484 92.5341C153.203 92.9062 152.812 93.3608 152.312 93.8977L150.352 95.9943V96.0625H154.409V97H148.903ZM155.777 95.2102V94.3409L159.612 88.2727H160.243V89.6193H159.817L156.919 94.2045V94.2727H162.084V95.2102H155.777ZM159.885 97V94.946V94.5412V88.2727H160.891V97H159.885ZM166.527 97.1193C165.885 97.1193 165.338 96.9446 164.887 96.5952C164.435 96.2429 164.09 95.733 163.851 95.0653C163.613 94.3949 163.493 93.5852 163.493 92.6364C163.493 91.6932 163.613 90.8878 163.851 90.2202C164.093 89.5497 164.439 89.0384 164.891 88.6861C165.346 88.331 165.891 88.1534 166.527 88.1534C167.164 88.1534 167.708 88.331 168.159 88.6861C168.614 89.0384 168.961 89.5497 169.199 90.2202C169.441 90.8878 169.561 91.6932 169.561 92.6364C169.561 93.5852 169.442 94.3949 169.203 95.0653C168.965 95.733 168.62 96.2429 168.168 96.5952C167.716 96.9446 167.169 97.1193 166.527 97.1193ZM166.527 96.1818C167.164 96.1818 167.658 95.875 168.01 95.2614C168.363 94.6477 168.539 93.7727 168.539 92.6364C168.539 91.8807 168.458 91.2372 168.296 90.706C168.137 90.1747 167.907 89.7699 167.605 89.4915C167.307 89.2131 166.948 89.0739 166.527 89.0739C165.897 89.0739 165.404 89.3849 165.049 90.0071C164.694 90.6264 164.516 91.5028 164.516 92.6364C164.516 93.392 164.596 94.0341 164.755 94.5625C164.914 95.0909 165.142 95.4929 165.441 95.7685C165.742 96.044 166.104 96.1818 166.527 96.1818ZM174.573 99.4545V90.4545H175.578V94.3239C175.578 94.679 175.652 94.9915 175.8 95.2614C175.951 95.5284 176.161 95.7372 176.431 95.8878C176.703 96.0384 177.022 96.1136 177.385 96.1136C177.749 96.1136 178.066 96.0384 178.336 95.8878C178.608 95.7344 178.819 95.5241 178.966 95.2571C179.117 94.9872 179.192 94.6761 179.192 94.3239V90.4545H180.198V97H179.192V96.0284H179.141C178.965 96.3722 178.719 96.6349 178.404 96.8168C178.088 96.9957 177.749 97.0852 177.385 97.0852C177.022 97.0852 176.682 96.9957 176.367 96.8168C176.054 96.6349 175.809 96.3722 175.63 96.0284H175.578V99.4545H174.573ZM184.68 99.5909C184.194 99.5909 183.776 99.5284 183.427 99.4034C183.077 99.2812 182.786 99.1193 182.553 98.9176C182.323 98.7188 182.14 98.5057 182.004 98.2784L182.805 97.7159C182.896 97.8352 183.011 97.9716 183.15 98.125C183.289 98.2812 183.479 98.4162 183.721 98.5298C183.965 98.6463 184.285 98.7045 184.68 98.7045C185.208 98.7045 185.644 98.5767 185.988 98.321C186.332 98.0653 186.504 97.6648 186.504 97.1193V95.7898H186.418C186.344 95.9091 186.239 96.0568 186.103 96.233C185.969 96.4062 185.776 96.5611 185.523 96.6974C185.273 96.831 184.935 96.8977 184.509 96.8977C183.981 96.8977 183.506 96.7727 183.086 96.5227C182.668 96.2727 182.337 95.9091 182.093 95.4318C181.852 94.9545 181.731 94.375 181.731 93.6932C181.731 93.0227 181.849 92.4389 182.085 91.9418C182.32 91.4418 182.648 91.0554 183.069 90.7827C183.489 90.5071 183.975 90.3693 184.526 90.3693C184.952 90.3693 185.29 90.4403 185.54 90.5824C185.793 90.7216 185.987 90.8807 186.12 91.0597C186.256 91.2358 186.362 91.3807 186.435 91.4943H186.538V90.4545H187.509V97.1875C187.509 97.75 187.381 98.2074 187.126 98.5597C186.873 98.9148 186.532 99.1747 186.103 99.3395C185.677 99.5071 185.202 99.5909 184.68 99.5909ZM184.646 95.9943C185.049 95.9943 185.39 95.902 185.668 95.7173C185.947 95.5327 186.158 95.267 186.303 94.9205C186.448 94.5739 186.521 94.1591 186.521 93.6761C186.521 93.2045 186.45 92.7884 186.308 92.4276C186.165 92.0668 185.955 91.7841 185.677 91.5795C185.398 91.375 185.055 91.2727 184.646 91.2727C184.219 91.2727 183.864 91.3807 183.58 91.5966C183.299 91.8125 183.087 92.1023 182.945 92.4659C182.806 92.8295 182.737 93.233 182.737 93.6761C182.737 94.1307 182.808 94.5327 182.95 94.8821C183.094 95.2287 183.308 95.5014 183.589 95.7003C183.873 95.8963 184.225 95.9943 184.646 95.9943ZM192.435 87.8636L189.623 98.3125H188.702L191.515 87.8636H192.435ZM200.684 88.2727V97H199.662L194.906 90.1477H194.821V97H193.764V88.2727H194.787L199.559 95.142H199.645V88.2727H200.684ZM202.663 97V90.4545H203.634V91.4773H203.719C203.856 91.1278 204.076 90.8565 204.38 90.6634C204.684 90.4673 205.049 90.3693 205.475 90.3693C205.907 90.3693 206.266 90.4673 206.553 90.6634C206.843 90.8565 207.069 91.1278 207.231 91.4773H207.299C207.467 91.1392 207.718 90.8707 208.053 90.6719C208.388 90.4702 208.79 90.3693 209.259 90.3693C209.844 90.3693 210.323 90.5526 210.695 90.919C211.067 91.2827 211.254 91.8494 211.254 92.6193V97H210.248V92.6193C210.248 92.1364 210.116 91.7912 209.852 91.5838C209.587 91.3764 209.276 91.2727 208.918 91.2727C208.458 91.2727 208.102 91.4119 207.849 91.6903C207.596 91.9659 207.469 92.3153 207.469 92.7386V97H206.447V92.517C206.447 92.1449 206.326 91.8452 206.085 91.6179C205.843 91.3878 205.532 91.2727 205.151 91.2727C204.89 91.2727 204.646 91.3423 204.418 91.4815C204.194 91.6207 204.012 91.8139 203.873 92.0611C203.737 92.3054 203.668 92.5881 203.668 92.9091V97H202.663ZM216.024 97.1193C215.462 97.1193 214.96 97.0227 214.52 96.8295C214.082 96.6364 213.734 96.3679 213.476 96.0241C213.22 95.6776 213.081 95.2756 213.058 94.8182H214.132C214.155 95.0994 214.251 95.3423 214.422 95.5469C214.592 95.7486 214.815 95.9048 215.091 96.0156C215.366 96.1264 215.672 96.1818 216.007 96.1818C216.382 96.1818 216.714 96.1165 217.004 95.9858C217.294 95.8551 217.521 95.6733 217.686 95.4403C217.851 95.2074 217.933 94.9375 217.933 94.6307C217.933 94.3097 217.854 94.027 217.695 93.7827C217.536 93.5355 217.303 93.3423 216.996 93.2031C216.689 93.0639 216.314 92.9943 215.871 92.9943H215.172V92.0568H215.871C216.217 92.0568 216.521 91.9943 216.783 91.8693C217.047 91.7443 217.253 91.5682 217.401 91.3409C217.551 91.1136 217.626 90.8466 217.626 90.5398C217.626 90.2443 217.561 89.9872 217.43 89.7685C217.3 89.5497 217.115 89.3793 216.876 89.2571C216.641 89.1349 216.362 89.0739 216.041 89.0739C215.74 89.0739 215.456 89.1293 215.189 89.2401C214.925 89.348 214.709 89.5057 214.541 89.7131C214.374 89.9176 214.283 90.1648 214.268 90.4545H213.246C213.263 89.9972 213.401 89.5966 213.659 89.2528C213.918 88.9062 214.256 88.6364 214.673 88.4432C215.094 88.25 215.555 88.1534 216.058 88.1534C216.598 88.1534 217.061 88.2628 217.447 88.4815C217.834 88.6974 218.131 88.983 218.338 89.3381C218.545 89.6932 218.649 90.0767 218.649 90.4886C218.649 90.9801 218.52 91.3991 218.261 91.7457C218.006 92.0923 217.658 92.3324 217.217 92.4659V92.5341C217.768 92.625 218.199 92.8594 218.509 93.2372C218.818 93.6122 218.973 94.0767 218.973 94.6307C218.973 95.1051 218.844 95.5312 218.585 95.9091C218.33 96.2841 217.98 96.5795 217.537 96.7955C217.094 97.0114 216.589 97.1193 216.024 97.1193Z" fill="#F9FAFB"/>
</g>
<path d="M37.0497 181.273V190H35.9929V182.381H35.9418L33.8111 183.795V182.722L35.9929 181.273H37.0497ZM39.5597 190V189.233L42.4403 186.08C42.7784 185.71 43.0568 185.389 43.2756 185.116C43.4943 184.841 43.6563 184.582 43.7614 184.341C43.8693 184.097 43.9233 183.841 43.9233 183.574C43.9233 183.267 43.8494 183.001 43.7017 182.777C43.5568 182.553 43.358 182.379 43.1051 182.257C42.8523 182.135 42.5682 182.074 42.2528 182.074C41.9176 182.074 41.625 182.143 41.375 182.283C41.1278 182.419 40.9361 182.611 40.7997 182.858C40.6662 183.105 40.5994 183.395 40.5994 183.727H39.5938C39.5938 183.216 39.7116 182.767 39.9474 182.381C40.1832 181.994 40.5043 181.693 40.9105 181.477C41.3196 181.261 41.7784 181.153 42.2869 181.153C42.7983 181.153 43.2514 181.261 43.6463 181.477C44.0412 181.693 44.3509 181.984 44.5753 182.351C44.7997 182.717 44.9119 183.125 44.9119 183.574C44.9119 183.895 44.8537 184.209 44.7372 184.516C44.6236 184.82 44.4247 185.159 44.1406 185.534C43.8594 185.906 43.4688 186.361 42.9688 186.898L41.0085 188.994V189.062H45.0653V190H39.5597Z" fill="#F9FAFB"/>
<path d="M84.0287 181.273V190H82.9719V182.381H82.9208L80.7901 183.795V182.722L82.9719 181.273H84.0287ZM89.4875 190.119C88.925 190.119 88.4236 190.023 87.9833 189.83C87.5458 189.636 87.1978 189.368 86.9392 189.024C86.6835 188.678 86.5443 188.276 86.5216 187.818H87.5955C87.6182 188.099 87.7148 188.342 87.8853 188.547C88.0557 188.749 88.2787 188.905 88.5543 189.016C88.8299 189.126 89.1353 189.182 89.4705 189.182C89.8455 189.182 90.1779 189.116 90.4676 188.986C90.7574 188.855 90.9847 188.673 91.1495 188.44C91.3142 188.207 91.3966 187.938 91.3966 187.631C91.3966 187.31 91.3171 187.027 91.158 186.783C90.9989 186.536 90.7659 186.342 90.4591 186.203C90.1523 186.064 89.7773 185.994 89.3341 185.994H88.6353V185.057H89.3341C89.6807 185.057 89.9847 184.994 90.246 184.869C90.5103 184.744 90.7162 184.568 90.8639 184.341C91.0145 184.114 91.0898 183.847 91.0898 183.54C91.0898 183.244 91.0245 182.987 90.8938 182.768C90.7631 182.55 90.5784 182.379 90.3398 182.257C90.104 182.135 89.8256 182.074 89.5046 182.074C89.2034 182.074 88.9193 182.129 88.6523 182.24C88.3881 182.348 88.1722 182.506 88.0046 182.713C87.837 182.918 87.746 183.165 87.7318 183.455H86.7091C86.7262 182.997 86.8639 182.597 87.1225 182.253C87.381 181.906 87.7191 181.636 88.1367 181.443C88.5571 181.25 89.0188 181.153 89.5216 181.153C90.0614 181.153 90.5245 181.263 90.9108 181.482C91.2972 181.697 91.5941 181.983 91.8014 182.338C92.0088 182.693 92.1125 183.077 92.1125 183.489C92.1125 183.98 91.9833 184.399 91.7247 184.746C91.4691 185.092 91.121 185.332 90.6807 185.466V185.534C91.2318 185.625 91.6622 185.859 91.9719 186.237C92.2816 186.612 92.4364 187.077 92.4364 187.631C92.4364 188.105 92.3071 188.531 92.0486 188.909C91.7929 189.284 91.4435 189.58 91.0003 189.795C90.5571 190.011 90.0529 190.119 89.4875 190.119Z" fill="#F9FAFB"/>
<path d="M131.666 181.273V190H130.61V182.381H130.558L128.428 183.795V182.722L130.61 181.273H131.666ZM133.972 188.21V187.341L137.807 181.273H138.438V182.619H138.012L135.114 187.205V187.273H140.279V188.21H133.972ZM138.08 190V187.946V187.541V181.273H139.085V190H138.08Z" fill="#F9FAFB"/>
<path d="M179.032 181.273V190H177.975V182.381H177.924L175.794 183.795V182.722L177.975 181.273H179.032ZM184.269 190.119C183.769 190.119 183.319 190.02 182.919 189.821C182.518 189.622 182.197 189.349 181.955 189.003C181.714 188.656 181.582 188.261 181.559 187.818H182.582C182.622 188.213 182.801 188.54 183.119 188.798C183.44 189.054 183.823 189.182 184.269 189.182C184.627 189.182 184.945 189.098 185.224 188.93C185.505 188.763 185.725 188.533 185.884 188.24C186.046 187.945 186.127 187.611 186.127 187.239C186.127 186.858 186.044 186.518 185.876 186.22C185.711 185.919 185.484 185.682 185.194 185.509C184.904 185.335 184.573 185.247 184.201 185.244C183.934 185.241 183.66 185.283 183.379 185.368C183.097 185.45 182.866 185.557 182.684 185.688L181.695 185.568L182.224 181.273H186.758V182.21H183.11L182.803 184.784H182.855C183.034 184.642 183.258 184.524 183.528 184.43C183.798 184.337 184.079 184.29 184.372 184.29C184.906 184.29 185.382 184.418 185.799 184.673C186.22 184.926 186.549 185.273 186.788 185.713C187.029 186.153 187.15 186.656 187.15 187.222C187.15 187.778 187.025 188.276 186.775 188.713C186.528 189.148 186.187 189.491 185.752 189.744C185.318 189.994 184.823 190.119 184.269 190.119Z" fill="#F9FAFB"/>
<path d="M226.105 181.273V190H225.048V182.381H224.997L222.866 183.795V182.722L225.048 181.273H226.105ZM231.513 190.119C231.155 190.114 230.797 190.045 230.439 189.915C230.081 189.784 229.754 189.564 229.459 189.254C229.163 188.942 228.926 188.52 228.747 187.989C228.568 187.455 228.478 186.784 228.478 185.977C228.478 185.205 228.551 184.52 228.696 183.923C228.841 183.324 229.051 182.82 229.326 182.411C229.602 181.999 229.934 181.686 230.324 181.473C230.716 181.26 231.157 181.153 231.649 181.153C232.138 181.153 232.572 181.251 232.953 181.447C233.336 181.641 233.649 181.911 233.89 182.257C234.132 182.604 234.288 183.003 234.359 183.455H233.319C233.223 183.062 233.035 182.737 232.757 182.479C232.478 182.22 232.109 182.091 231.649 182.091C230.973 182.091 230.44 182.385 230.051 182.973C229.665 183.561 229.47 184.386 229.467 185.449H229.535C229.694 185.207 229.883 185.001 230.102 184.831C230.324 184.658 230.568 184.524 230.835 184.43C231.102 184.337 231.385 184.29 231.683 184.29C232.183 184.29 232.64 184.415 233.055 184.665C233.47 184.912 233.802 185.254 234.052 185.692C234.302 186.126 234.427 186.625 234.427 187.188C234.427 187.727 234.307 188.222 234.065 188.67C233.824 189.116 233.484 189.472 233.047 189.736C232.612 189.997 232.101 190.125 231.513 190.119ZM231.513 189.182C231.871 189.182 232.192 189.092 232.476 188.913C232.763 188.734 232.988 188.494 233.153 188.193C233.321 187.892 233.405 187.557 233.405 187.188C233.405 186.827 233.324 186.499 233.162 186.203C233.003 185.905 232.782 185.668 232.501 185.491C232.223 185.315 231.905 185.227 231.547 185.227C231.277 185.227 231.025 185.281 230.792 185.389C230.559 185.494 230.355 185.639 230.179 185.824C230.005 186.009 229.869 186.22 229.77 186.459C229.67 186.695 229.621 186.943 229.621 187.205C229.621 187.551 229.701 187.875 229.863 188.176C230.028 188.477 230.253 188.72 230.537 188.905C230.824 189.089 231.149 189.182 231.513 189.182Z" fill="#F9FAFB"/>
<path d="M273.588 181.273V190H272.531V182.381H272.48L270.35 183.795V182.722L272.531 181.273H273.588ZM276.371 190L280.274 182.278V182.21H275.774V181.273H281.365V182.261L277.479 190H276.371Z" fill="#F9FAFB"/>
<path d="M319.985 181.273V190H318.928V182.381H318.877L316.747 183.795V182.722L318.928 181.273H319.985ZM325.291 190.119C324.705 190.119 324.188 190.016 323.74 189.808C323.294 189.598 322.945 189.31 322.695 188.943C322.445 188.574 322.322 188.153 322.325 187.682C322.322 187.312 322.394 186.972 322.542 186.659C322.69 186.344 322.892 186.081 323.147 185.871C323.406 185.658 323.694 185.523 324.012 185.466V185.415C323.595 185.307 323.262 185.072 323.015 184.712C322.768 184.348 322.646 183.935 322.649 183.472C322.646 183.028 322.758 182.632 322.985 182.283C323.213 181.933 323.525 181.658 323.923 181.456C324.323 181.254 324.779 181.153 325.291 181.153C325.796 181.153 326.248 181.254 326.646 181.456C327.044 181.658 327.356 181.933 327.583 182.283C327.813 182.632 327.93 183.028 327.933 183.472C327.93 183.935 327.803 184.348 327.553 184.712C327.306 185.072 326.978 185.307 326.569 185.415V185.466C326.884 185.523 327.169 185.658 327.421 185.871C327.674 186.081 327.876 186.344 328.026 186.659C328.177 186.972 328.254 187.312 328.257 187.682C328.254 188.153 328.126 188.574 327.873 188.943C327.623 189.31 327.275 189.598 326.829 189.808C326.386 190.016 325.873 190.119 325.291 190.119ZM325.291 189.182C325.686 189.182 326.026 189.118 326.313 188.99C326.6 188.862 326.822 188.682 326.978 188.449C327.134 188.216 327.214 187.943 327.217 187.631C327.214 187.301 327.129 187.01 326.961 186.757C326.794 186.504 326.565 186.305 326.275 186.161C325.988 186.016 325.66 185.943 325.291 185.943C324.919 185.943 324.586 186.016 324.294 186.161C324.004 186.305 323.775 186.504 323.607 186.757C323.443 187.01 323.362 187.301 323.365 187.631C323.362 187.943 323.437 188.216 323.59 188.449C323.747 188.682 323.97 188.862 324.259 188.99C324.549 189.118 324.893 189.182 325.291 189.182ZM325.291 185.04C325.603 185.04 325.88 184.977 326.122 184.852C326.366 184.727 326.558 184.553 326.697 184.328C326.836 184.104 326.907 183.841 326.91 183.54C326.907 183.244 326.838 182.987 326.701 182.768C326.565 182.547 326.376 182.376 326.134 182.257C325.893 182.135 325.612 182.074 325.291 182.074C324.964 182.074 324.678 182.135 324.434 182.257C324.19 182.376 324.001 182.547 323.867 182.768C323.734 182.987 323.669 183.244 323.671 183.54C323.669 183.841 323.735 184.104 323.872 184.328C324.011 184.553 324.203 184.727 324.447 184.852C324.691 184.977 324.972 185.04 325.291 185.04Z" fill="#F9FAFB"/>
<path d="M173.322 213.273H174.634V219.46C174.634 220.02 174.523 220.499 174.302 220.896C174.083 221.294 173.775 221.598 173.377 221.808C172.979 222.016 172.513 222.119 171.979 222.119C171.488 222.119 171.046 222.03 170.654 221.851C170.265 221.672 169.956 221.412 169.729 221.071C169.505 220.727 169.393 220.31 169.393 219.818H170.701C170.701 220.06 170.756 220.268 170.867 220.445C170.981 220.621 171.135 220.759 171.331 220.858C171.53 220.955 171.758 221.003 172.013 221.003C172.292 221.003 172.528 220.945 172.721 220.828C172.917 220.709 173.066 220.534 173.168 220.304C173.27 220.074 173.322 219.793 173.322 219.46V213.273ZM178.353 222.145C177.938 222.145 177.563 222.068 177.228 221.915C176.893 221.759 176.627 221.533 176.431 221.237C176.238 220.942 176.142 220.58 176.142 220.151C176.142 219.781 176.213 219.477 176.355 219.239C176.497 219 176.688 218.811 176.93 218.672C177.171 218.533 177.441 218.428 177.74 218.357C178.038 218.286 178.342 218.232 178.651 218.195C179.044 218.149 179.362 218.112 179.606 218.084C179.85 218.053 180.028 218.003 180.139 217.935C180.249 217.866 180.305 217.756 180.305 217.602V217.572C180.305 217.2 180.2 216.912 179.99 216.707C179.782 216.503 179.472 216.401 179.061 216.401C178.632 216.401 178.294 216.496 178.046 216.686C177.802 216.874 177.633 217.082 177.539 217.312L176.342 217.04C176.484 216.642 176.691 216.321 176.964 216.077C177.24 215.83 177.556 215.651 177.914 215.54C178.272 215.426 178.649 215.369 179.044 215.369C179.305 215.369 179.582 215.401 179.874 215.463C180.17 215.523 180.445 215.634 180.701 215.795C180.96 215.957 181.171 216.189 181.336 216.49C181.501 216.788 181.583 217.176 181.583 217.653V222H180.339V221.105H180.288C180.205 221.27 180.082 221.432 179.917 221.591C179.752 221.75 179.541 221.882 179.282 221.987C179.024 222.092 178.714 222.145 178.353 222.145ZM178.63 221.122C178.982 221.122 179.284 221.053 179.534 220.913C179.786 220.774 179.978 220.592 180.109 220.368C180.242 220.141 180.309 219.898 180.309 219.639V218.795C180.264 218.841 180.176 218.884 180.045 218.923C179.917 218.96 179.771 218.993 179.606 219.021C179.441 219.047 179.281 219.071 179.124 219.094C178.968 219.114 178.838 219.131 178.732 219.145C178.485 219.176 178.259 219.229 178.055 219.303C177.853 219.376 177.691 219.483 177.569 219.622C177.45 219.759 177.39 219.94 177.39 220.168C177.39 220.483 177.507 220.722 177.74 220.884C177.972 221.043 178.269 221.122 178.63 221.122ZM183.28 222V215.455H184.503V216.52H184.584C184.721 216.159 184.944 215.878 185.253 215.676C185.563 215.472 185.934 215.369 186.366 215.369C186.803 215.369 187.17 215.472 187.465 215.676C187.763 215.881 187.983 216.162 188.126 216.52H188.194C188.35 216.17 188.599 215.892 188.939 215.685C189.28 215.474 189.687 215.369 190.158 215.369C190.752 215.369 191.236 215.555 191.611 215.928C191.989 216.3 192.178 216.861 192.178 217.611V222H190.904V217.73C190.904 217.287 190.783 216.966 190.542 216.767C190.3 216.568 190.012 216.469 189.677 216.469C189.262 216.469 188.939 216.597 188.709 216.852C188.479 217.105 188.364 217.43 188.364 217.828V222H187.094V217.649C187.094 217.294 186.983 217.009 186.762 216.793C186.54 216.577 186.252 216.469 185.897 216.469C185.655 216.469 185.432 216.533 185.228 216.661C185.026 216.786 184.863 216.96 184.738 217.185C184.616 217.409 184.555 217.669 184.555 217.964V222H183.28Z" fill="#F9FAFB"/>
<defs>
<filter id="filter0_bd_3144_135345" x="3.49951" y="22.5" width="368" height="59.0005" filterUnits="userSpaceOnUse" color-interpolation-filters="sRGB">
<feFlood flood-opacity="0" result="BackgroundImageFix"/>
<feGaussianBlur in="BackgroundImageFix" stdDeviation="3"/>
<feComposite in2="SourceAlpha" operator="in" result="effect1_backgroundBlur_3144_135345"/>
<feColorMatrix in="SourceAlpha" type="matrix" values="0 0 0 0 0 0 0 0 0 0 0 0 0 0 0 0 0 0 127 0" result="hardAlpha"/>
<feOffset dy="2"/>
<feGaussianBlur stdDeviation="4"/>
<feComposite in2="hardAlpha" operator="out"/>
<feColorMatrix type="matrix" values="0 0 0 0 0 0 0 0 0 0 0 0 0 0 0 0 0 0 0.25 0"/>
<feBlend mode="normal" in2="effect1_backgroundBlur_3144_135345" result="effect2_dropShadow_3144_135345"/>
<feBlend mode="normal" in="SourceGraphic" in2="effect2_dropShadow_3144_135345" result="shape"/>
</filter>
<filter id="filter1_bd_3144_135345" x="3.49951" y="27.5" width="368" height="58.0005" filterUnits="userSpaceOnUse" color-interpolation-filters="sRGB">
<feFlood flood-opacity="0" result="BackgroundImageFix"/>
<feGaussianBlur in="BackgroundImageFix" stdDeviation="3"/>
<feComposite in2="SourceAlpha" operator="in" result="effect1_backgroundBlur_3144_135345"/>
<feColorMatrix in="SourceAlpha" type="matrix" values="0 0 0 0 0 0 0 0 0 0 0 0 0 0 0 0 0 0 127 0" result="hardAlpha"/>
<feOffset dy="2"/>
<feGaussianBlur stdDeviation="4"/>
<feComposite in2="hardAlpha" operator="out"/>
<feColorMatrix type="matrix" values="0 0 0 0 0 0 0 0 0 0 0 0 0 0 0 0 0 0 0.25 0"/>
<feBlend mode="normal" in2="effect1_backgroundBlur_3144_135345" result="effect2_dropShadow_3144_135345"/>
<feBlend mode="normal" in="SourceGraphic" in2="effect2_dropShadow_3144_135345" result="shape"/>
</filter>
<filter id="filter2_d_3144_135345" x="161.565" y="36.7391" width="44.8696" height="44.8696" filterUnits="userSpaceOnUse" color-interpolation-filters="sRGB">
<feFlood flood-opacity="0" result="BackgroundImageFix"/>
<feColorMatrix in="SourceAlpha" type="matrix" values="0 0 0 0 0 0 0 0 0 0 0 0 0 0 0 0 0 0 127 0" result="hardAlpha"/>
<feOffset dy="4.17391"/>
<feGaussianBlur stdDeviation="5.21739"/>
<feComposite in2="hardAlpha" operator="out"/>
<feColorMatrix type="matrix" values="0 0 0 0 0 0 0 0 0 0 0 0 0 0 0 0 0 0 0.12 0"/>
<feBlend mode="normal" in2="BackgroundImageFix" result="effect1_dropShadow_3144_135345"/>
<feBlend mode="normal" in="SourceGraphic" in2="effect1_dropShadow_3144_135345" result="shape"/>
</filter>
<filter id="filter3_d_3144_135345" x="124" y="63" width="120" height="65" filterUnits="userSpaceOnUse" color-interpolation-filters="sRGB">
<feFlood flood-opacity="0" result="BackgroundImageFix"/>
<feColorMatrix in="SourceAlpha" type="matrix" values="0 0 0 0 0 0 0 0 0 0 0 0 0 0 0 0 0 0 127 0" result="hardAlpha"/>
<feOffset dy="5"/>
<feGaussianBlur stdDeviation="6"/>
<feComposite in2="hardAlpha" operator="out"/>
<feColorMatrix type="matrix" values="0 0 0 0 0.215686 0 0 0 0 0.345098 0 0 0 0 0.976471 0 0 0 0.2 0"/>
<feBlend mode="normal" in2="BackgroundImageFix" result="effect1_dropShadow_3144_135345"/>
<feBlend mode="normal" in="SourceGraphic" in2="effect1_dropShadow_3144_135345" result="shape"/>
</filter>
<linearGradient id="paint0_linear_3144_135345" x1="1.5" y1="164" x2="1.5" y2="3.0505e-10" gradientUnits="userSpaceOnUse">
<stop stop-color="#08C457"/>
<stop offset="0.299225" stop-color="#00A3D3"/>
<stop offset="0.511902" stop-color="#F7C544"/>
<stop offset="0.698324" stop-color="#E93333"/>
<stop offset="0.908376" stop-color="#181818"/>
</linearGradient>
</defs>
</svg>
