<svg width="227" height="24" viewBox="0 0 227 24" fill="none" xmlns="http://www.w3.org/2000/svg">
<g filter="url(#filter0_bd_4612_48365)">
<g clip-path="url(#clip0_4612_48365)">
<rect x="8" y="6" width="19.1818" height="8" fill="#D5E1FE" fill-opacity="0.8"/>
<rect x="27.1816" y="6" width="19.1818" height="8" fill="#B9CDFD" fill-opacity="0.8"/>
<rect x="46.3633" y="6" width="19.1818" height="8" fill="#96B4FC" fill-opacity="0.8"/>
<rect x="65.5459" y="6" width="19.1818" height="8" fill="#739AFA" fill-opacity="0.8"/>
<rect x="84.7275" y="6" width="19.1818" height="8" fill="#5081F9" fill-opacity="0.8"/>
<rect x="103.909" y="6" width="19.1818" height="8" fill="#2D68F8" fill-opacity="0.8"/>
<rect x="123.091" y="6" width="19.1818" height="8" fill="#2657CF" fill-opacity="0.8"/>
<rect x="142.272" y="6" width="19.1818" height="8" fill="#1E45A5" fill-opacity="0.8"/>
<rect x="161.454" y="6" width="19.1818" height="8" fill="#17347C" fill-opacity="0.8"/>
<rect x="180.637" y="6" width="19.1818" height="8" fill="#0F2353" fill-opacity="0.8"/>
<rect x="199.818" y="6" width="19.1818" height="8" fill="#091532" fill-opacity="0.8"/>
</g>
<rect x="8.5" y="6.5" width="210" height="7" rx="3.5" stroke="#374151" stroke-opacity="0.8" shape-rendering="crispEdges"/>
</g>
<defs>
<filter id="filter0_bd_4612_48365" x="0" y="0" width="227" height="24" filterUnits="userSpaceOnUse" color-interpolation-filters="sRGB">
<feFlood flood-opacity="0" result="BackgroundImageFix"/>
<feGaussianBlur in="BackgroundImageFix" stdDeviation="3"/>
<feComposite in2="SourceAlpha" operator="in" result="effect1_backgroundBlur_4612_48365"/>
<feColorMatrix in="SourceAlpha" type="matrix" values="0 0 0 0 0 0 0 0 0 0 0 0 0 0 0 0 0 0 127 0" result="hardAlpha"/>
<feOffset dy="2"/>
<feGaussianBlur stdDeviation="4"/>
<feComposite in2="hardAlpha" operator="out"/>
<feColorMatrix type="matrix" values="0 0 0 0 0 0 0 0 0 0 0 0 0 0 0 0 0 0 0.25 0"/>
<feBlend mode="normal" in2="effect1_backgroundBlur_4612_48365" result="effect2_dropShadow_4612_48365"/>
<feBlend mode="normal" in="SourceGraphic" in2="effect2_dropShadow_4612_48365" result="shape"/>
</filter>
<clipPath id="clip0_4612_48365">
<rect x="8" y="6" width="211" height="8" rx="4" fill="white"/>
</clipPath>
</defs>
</svg>
