<svg width="20" height="20" viewBox="0 0 20 20" fill="none" xmlns="http://www.w3.org/2000/svg">
<path d="M15 14.9997C15.4167 14.9997 15.771 14.854 16.063 14.5627C16.355 14.2713 16.5007 13.917 16.5 13.4997C16.5 13.083 16.3543 12.729 16.063 12.4377C15.7717 12.1463 15.4173 12.0003 15 11.9997C14.5833 11.9997 14.2293 12.1457 13.938 12.4377C13.6467 12.7297 13.5007 13.0837 13.5 13.4997C13.5 13.9163 13.646 14.2707 13.938 14.5627C14.23 14.8547 14.584 15.0003 15 14.9997ZM15 17.9997C15.5 17.9997 15.9667 17.883 16.4 17.6497C16.8333 17.4163 17.1917 17.0913 17.475 16.6747C17.0917 16.4413 16.6917 16.2703 16.275 16.1617C15.8583 16.053 15.4333 15.999 15 15.9997C14.5667 15.9997 14.1417 16.0537 13.725 16.1617C13.3083 16.2697 12.9083 16.4407 12.525 16.6747C12.8083 17.0913 13.1667 17.4163 13.6 17.6497C14.0333 17.883 14.5 17.9997 15 17.9997ZM2 17.9997C1.45 17.9997 0.979333 17.804 0.588 17.4127C0.196667 17.0213 0.000666667 16.5503 0 15.9997V1.99968C0 1.44968 0.196 0.979009 0.588 0.587676C0.98 0.196342 1.45067 0.000342417 2 -0.000324249H16C16.55 -0.000324249 17.021 0.195676 17.413 0.587676C17.805 0.979676 18.0007 1.45034 18 1.99968V8.69968C17.6833 8.54968 17.3583 8.42068 17.025 8.31268C16.6917 8.20468 16.35 8.12534 16 8.07468V1.99968H2V15.9997H8.05C8.1 16.3663 8.17933 16.7163 8.288 17.0497C8.39667 17.383 8.52567 17.6997 8.675 17.9997H2ZM2 14.9997V15.9997V1.99968V8.07468V7.99968V14.9997ZM4 13.9997H8.075C8.125 13.6497 8.20433 13.308 8.313 12.9747C8.42167 12.6413 8.54233 12.3163 8.675 11.9997H4V13.9997ZM4 9.99968H10.1C10.6333 9.49968 11.2293 9.08301 11.888 8.74968C12.5467 8.41634 13.2507 8.19134 14 8.07468V7.99968H4V9.99968ZM4 5.99968H14V3.99968H4V5.99968ZM15 19.9997C13.6167 19.9997 12.4377 19.5123 11.463 18.5377C10.4883 17.563 10.0007 16.3837 10 14.9997C10 13.6163 10.4877 12.4373 11.463 11.4627C12.4383 10.488 13.6173 10.0003 15 9.99968C16.3833 9.99968 17.5627 10.4873 18.538 11.4627C19.5133 12.438 20.0007 13.617 20 14.9997C20 16.383 19.5123 17.5623 18.537 18.5377C17.5617 19.513 16.3827 20.0003 15 19.9997Z" fill="#F9FAFB"/>
</svg>
