<svg width="91" height="40" viewBox="0 0 91 40" fill="none" xmlns="http://www.w3.org/2000/svg">
<g clip-path="url(#clip0_6582_28559)">
<path d="M36.5552 17.8896H15.0864V25.0451H36.5552V17.8896Z" fill="#14C225"/>
<path d="M15.0863 10.7457C17.7277 10.7457 20.0316 12.1801 21.2668 14.3105H28.9473C27.3582 8.13711 21.7543 3.57617 15.0863 3.57617C7.1832 3.57852 0.775391 9.98633 0.775391 17.8895C0.775391 25.7926 7.1832 32.2004 15.0863 32.2004V25.0309C11.1418 25.0309 7.94258 21.834 7.94258 17.8871C7.94258 13.9402 11.1395 10.7434 15.0863 10.7434V10.7457Z" fill="#14C225"/>
<path d="M22.2161 25.0449C22.188 28.9637 19.0099 32.1348 15.0864 32.1488V39.3301C22.9755 39.316 29.3692 32.9293 29.3974 25.0449H22.2138H22.2161Z" fill="#14C225"/>
<path d="M42.7148 6.96797H45.5016V12.6047C44.0508 13.7555 42.0539 14.3719 40.1719 14.3719C36.0281 14.3719 32.9766 11.3742 32.9766 7.18594C32.9766 2.99766 36.0281 0 40.2281 0C42.5437 0 44.4656 0.834375 45.7477 2.40234L43.7883 4.30781C42.8273 3.23672 41.7164 2.73984 40.3781 2.73984C37.8164 2.73984 36.0656 4.54688 36.0656 7.18594C36.0656 9.825 37.8164 11.632 40.3406 11.632C41.1703 11.632 41.9414 11.4727 42.7148 11.0367V6.96797Z" fill="#FEFEFE"/>
<path d="M54.0543 3.5791V6.41035C53.8105 6.3916 53.6207 6.37051 53.3957 6.37051C51.7762 6.37051 50.7027 7.29394 50.7027 9.31894V14.3135H47.7637V3.5791H50.5691V5.13301C51.284 4.11113 52.491 3.5791 54.0543 3.5791Z" fill="#FEFEFE"/>
<path d="M65.9534 9.79648H58.287C58.5706 11.0949 59.644 11.8895 61.1886 11.8895C62.262 11.8895 63.0354 11.559 63.7315 10.8816L65.2948 12.6254C64.3526 13.7293 62.9417 14.3105 61.1136 14.3105C57.6097 14.3105 55.3315 12.0441 55.3315 8.94336C55.3315 5.84258 57.6472 3.57617 60.7362 3.57617C63.8253 3.57617 66.0097 5.6293 66.0097 8.98086C66.0097 9.21289 65.9722 9.54336 65.9534 9.79414V9.79648ZM58.2495 8.03398H63.2417C63.0354 6.7168 62.0745 5.86367 60.755 5.86367C59.4354 5.86367 58.4581 6.6957 58.2495 8.03398Z" fill="#FEFEFE"/>
<path d="M78.2088 9.79648H70.5424C70.826 11.0949 71.8994 11.8895 73.4439 11.8895C74.5174 11.8895 75.2908 11.559 75.9869 10.8816L77.5502 12.6254C76.608 13.7293 75.1947 14.3105 73.3689 14.3105C69.865 14.3105 67.5869 12.0441 67.5869 8.94336C67.5869 5.84258 69.9025 3.57617 72.9916 3.57617C76.0807 3.57617 78.265 5.6293 78.265 8.98086C78.265 9.21289 78.2275 9.54336 78.2088 9.79414V9.79648ZM70.5049 8.03398H75.4971C75.2908 6.7168 74.3299 5.86367 73.0104 5.86367C71.6908 5.86367 70.7135 6.6957 70.5049 8.03398Z" fill="#FEFEFE"/>
<path d="M90.225 8.25723V14.3111H87.2859V8.72832C87.2859 7.01738 86.5336 6.23223 85.2328 6.23223C83.8195 6.23223 82.8023 7.13691 82.8023 9.08223V14.3111H79.8633V3.5791H82.6688V4.97598C83.4609 4.07129 84.6469 3.5791 86.0203 3.5791C88.4133 3.5791 90.2203 5.03457 90.2203 8.25723H90.225Z" fill="#FEFEFE"/>
<path d="M49.7834 16.666V17.9129H47.4912V25.0449H46.0803V17.9129H43.7764V16.666H49.7834Z" fill="#FEFEFE"/>
<path d="M58.4693 22.0119H53.2545C53.2967 22.5627 53.4982 23.0057 53.8615 23.3408C54.2248 23.676 54.6701 23.8424 55.1998 23.8424C55.9592 23.8424 56.4959 23.5213 56.81 22.8768H58.3334C58.1271 23.5119 57.7521 24.0322 57.2131 24.4377C56.6717 24.8432 56.0014 25.0447 55.1998 25.0447C54.5482 25.0447 53.9623 24.8971 53.4467 24.5994C52.9311 24.3041 52.5256 23.8846 52.2326 23.3455C51.9396 22.8064 51.792 22.183 51.792 21.4729C51.792 20.7627 51.935 20.1369 52.2186 19.6002C52.5045 19.0611 52.9029 18.6463 53.4209 18.3533C53.9365 18.0604 54.5295 17.915 55.1975 17.915C55.8654 17.915 56.4162 18.058 56.9201 18.3416C57.424 18.6252 57.8154 19.0236 58.0967 19.5393C58.3779 20.0525 58.5186 20.6432 58.5186 21.3135C58.5186 21.5736 58.5021 21.8057 58.4693 22.0166V22.0119ZM57.0443 20.8588C57.035 20.3314 56.8498 19.9096 56.4865 19.5932C56.1232 19.2768 55.6732 19.1174 55.1365 19.1174C54.649 19.1174 54.2318 19.2744 53.885 19.5885C53.5381 19.9025 53.3318 20.3268 53.2662 20.8611H57.0443V20.8588Z" fill="#FEFEFE"/>
<path d="M61.4647 19.6053C61.7507 19.0709 62.1374 18.6561 62.6296 18.3584C63.1218 18.0607 63.6632 17.9131 64.2585 17.9131C64.7952 17.9131 65.264 18.0186 65.6647 18.2318C66.0655 18.4451 66.3843 18.71 66.6257 19.0287V17.8896H68.0507V25.0451H66.6257V23.9037C66.3866 24.2295 66.0608 24.5014 65.646 24.7193C65.2335 24.9373 64.7624 25.0451 64.2351 25.0451C63.6491 25.0451 63.1124 24.8928 62.6249 24.5881C62.1374 24.2834 61.7507 23.8568 61.4671 23.3107C61.1812 22.7646 61.0405 22.1436 61.0405 21.4498C61.0405 20.7561 61.1835 20.142 61.4671 19.6076L61.4647 19.6053ZM66.3327 20.2334C66.1382 19.8818 65.8851 19.6146 65.571 19.4318C65.2569 19.249 64.9194 19.1553 64.5562 19.1553C64.1929 19.1553 63.8554 19.2443 63.5413 19.4248C63.2272 19.6053 62.9741 19.8678 62.7796 20.2146C62.5851 20.5615 62.489 20.974 62.489 21.4498C62.489 21.9256 62.5851 22.3451 62.7796 22.7037C62.9741 23.0623 63.2296 23.3365 63.5483 23.524C63.8671 23.7115 64.2022 23.8053 64.5585 23.8053C64.9147 23.8053 65.2593 23.7139 65.5733 23.5287C65.8874 23.3459 66.1405 23.0764 66.3351 22.7201C66.5296 22.3662 66.6257 21.949 66.6257 21.4732C66.6257 20.9975 66.5296 20.5826 66.3351 20.2334H66.3327Z" fill="#FEFEFE"/>
<path d="M80.667 18.2529C81.0912 18.4779 81.4264 18.8131 81.6701 19.2561C81.9139 19.699 82.0357 20.2334 82.0357 20.8592V25.0451H80.6365V21.0725C80.6365 20.4537 80.4842 19.9803 80.1771 19.6498C79.8725 19.3193 79.4553 19.1553 78.9256 19.1553C78.3959 19.1553 77.9787 19.3193 77.6693 19.6498C77.36 19.9803 77.2053 20.4537 77.2053 21.0725V25.0451H75.8061V21.0725C75.8061 20.4537 75.6537 19.9803 75.3467 19.6498C75.042 19.3193 74.6248 19.1553 74.0951 19.1553C73.5654 19.1553 73.1482 19.3193 72.8389 19.6498C72.5295 19.9803 72.3748 20.4537 72.3748 21.0725V25.0451H70.9639V17.8896H72.3748V18.8178C72.6068 18.5342 72.8998 18.3115 73.2537 18.1545C73.6076 17.9951 73.9873 17.9154 74.3928 17.9154C74.9389 17.9154 75.424 18.0326 75.8553 18.267C76.2842 18.5014 76.6146 18.8389 76.8467 19.2818C77.0529 18.8646 77.374 18.5318 77.8123 18.2857C78.2506 18.0396 78.7217 17.9154 79.2232 17.9154C79.76 17.9154 80.2404 18.0279 80.667 18.2529Z" fill="#FEFEFE"/>
<path d="M86.1045 24.7523C85.6803 24.5555 85.3428 24.2883 85.0943 23.9508C84.8459 23.6133 84.7146 23.2336 84.6982 22.8164H86.1607C86.1865 23.1094 86.3248 23.3531 86.5756 23.55C86.8264 23.7469 87.1428 23.8453 87.5225 23.8453C87.9021 23.8453 88.2256 23.768 88.4459 23.6133C88.6639 23.4586 88.774 23.2594 88.774 23.018C88.774 22.7602 88.6521 22.5656 88.4084 22.4414C88.1646 22.3172 87.7779 22.1789 87.2506 22.0266C86.7373 21.8836 86.3225 21.7477 85.999 21.6141C85.6779 21.4805 85.399 21.2766 85.1623 21C84.9279 20.7234 84.8084 20.3602 84.8084 19.9102C84.8084 19.5422 84.9162 19.207 85.1295 18.9023C85.3451 18.5977 85.6521 18.3563 86.0529 18.1805C86.4537 18.0047 86.9131 17.918 87.4334 17.918C88.2092 17.918 88.835 18.1172 89.3107 18.5133C89.7865 18.9094 90.0396 19.4508 90.0725 20.1375H88.6615C88.6357 19.8281 88.5139 19.582 88.2889 19.3969C88.0662 19.2141 87.7639 19.1203 87.3842 19.1203C87.0045 19.1203 86.7279 19.1906 86.5287 19.3336C86.3295 19.4766 86.231 19.6641 86.231 19.8984C86.231 20.0813 86.2967 20.2359 86.4303 20.3625C86.5615 20.4867 86.7232 20.5852 86.9131 20.6578C87.1029 20.7281 87.3842 20.8195 87.7545 20.9273C88.249 21.0609 88.6568 21.1969 88.9756 21.3352C89.2943 21.4734 89.5685 21.675 89.7982 21.9422C90.0303 22.2094 90.1498 22.5656 90.1568 23.0086C90.1568 23.4023 90.049 23.7516 89.8357 24.0609C89.6201 24.3703 89.3178 24.6117 88.9264 24.7875C88.535 24.9633 88.0732 25.05 87.5459 25.05C87.0186 25.05 86.5287 24.9516 86.1021 24.7547L86.1045 24.7523Z" fill="#FEFEFE"/>
</g>
<defs>
<clipPath id="clip0_6582_28559">
<rect width="89.4492" height="39.3305" fill="white" transform="translate(0.775391)"/>
</clipPath>
</defs>
</svg>
