<svg width="361" height="225" viewBox="0 0 361 225" fill="none" xmlns="http://www.w3.org/2000/svg">
<path d="M14 147.59L5.27273 147.59L5.27273 146.273L9.44034 146.273L9.44034 146.167L5.27273 142.506L5.27273 140.849L9.2017 144.368L14 140.836L14 142.421L10.1009 145.242L11.2855 146.273L14 146.273L14 147.59ZM14.1321 137.383C14.1321 138.028 13.9943 138.583 13.7187 139.049C13.4403 139.512 13.0497 139.87 12.5469 140.123C12.0412 140.373 11.4489 140.498 10.7699 140.498C10.0994 140.498 9.50852 140.373 8.99716 140.123C8.48579 139.87 8.08665 139.518 7.79972 139.066C7.51278 138.612 7.36932 138.08 7.36932 137.472C7.36932 137.103 7.4304 136.745 7.55256 136.399C7.67472 136.052 7.86648 135.741 8.12784 135.465C8.3892 135.19 8.72869 134.972 9.14631 134.813C9.56108 134.654 10.0653 134.575 10.6591 134.575L11.1108 134.575L11.1108 139.778L10.1562 139.778L10.1562 135.823C9.82102 135.823 9.52415 135.892 9.26562 136.028C9.00426 136.164 8.79829 136.356 8.64773 136.603C8.49716 136.847 8.42187 137.134 8.42187 137.464C8.42187 137.822 8.50994 138.134 8.68608 138.401C8.85937 138.666 9.08665 138.87 9.3679 139.015C9.64631 139.157 9.94886 139.228 10.2756 139.228L11.0213 139.228C11.4588 139.228 11.831 139.151 12.1378 138.998C12.4446 138.842 12.679 138.624 12.8409 138.346C13 138.068 13.0795 137.742 13.0795 137.37C13.0795 137.129 13.0455 136.909 12.9773 136.71C12.9062 136.511 12.8011 136.339 12.6619 136.194C12.5227 136.049 12.3509 135.938 12.1463 135.862L12.3636 134.656C12.7187 134.752 13.0298 134.926 13.2969 135.176C13.5611 135.423 13.767 135.734 13.9148 136.109C14.0597 136.481 14.1321 136.906 14.1321 137.383ZM14.1321 130.404C14.1321 131.037 13.9886 131.583 13.7017 132.04C13.4119 132.495 13.0128 132.844 12.5043 133.089C11.9957 133.333 11.4134 133.455 10.7571 133.455C10.0923 133.455 9.50568 133.33 8.99716 133.08C8.48579 132.83 8.08665 132.478 7.79971 132.023C7.51278 131.569 7.36932 131.033 7.36932 130.417C7.36932 129.92 7.46165 129.476 7.64631 129.087C7.82812 128.698 8.08381 128.384 8.41335 128.145C8.7429 127.904 9.12784 127.76 9.56818 127.715L9.56818 128.955C9.26136 129.023 8.99716 129.18 8.77557 129.424C8.55398 129.665 8.44318 129.989 8.44318 130.395C8.44318 130.751 8.53693 131.062 8.72443 131.329C8.90909 131.593 9.17329 131.799 9.51704 131.947C9.85795 132.094 10.2614 132.168 10.7273 132.168C11.2045 132.168 11.6165 132.096 11.9631 131.951C12.3097 131.806 12.5781 131.601 12.7685 131.337C12.9588 131.07 13.054 130.756 13.054 130.395C13.054 130.154 13.0099 129.935 12.9219 129.739C12.831 129.54 12.7017 129.374 12.5341 129.241C12.3665 129.104 12.1648 129.009 11.929 128.955L11.929 127.715C12.3523 127.76 12.7301 127.898 13.0625 128.128C13.3949 128.358 13.6562 128.667 13.8466 129.053C14.0369 129.437 14.1321 129.887 14.1321 130.404ZM14.1321 123.531C14.1321 124.176 13.9943 124.732 13.7187 125.198C13.4403 125.661 13.0497 126.019 12.5469 126.271C12.0412 126.521 11.4489 126.646 10.7699 126.646C10.0994 126.646 9.50852 126.521 8.99716 126.271C8.48579 126.019 8.08665 125.666 7.79971 125.215C7.51278 124.76 7.36932 124.229 7.36932 123.621C7.36932 123.252 7.4304 122.894 7.55256 122.547C7.67471 122.2 7.86648 121.889 8.12784 121.614C8.3892 121.338 8.72869 121.121 9.14631 120.962C9.56108 120.803 10.0653 120.723 10.6591 120.723L11.1108 120.723L11.1108 125.926L10.1562 125.926L10.1562 121.972C9.82102 121.972 9.52415 122.04 9.26562 122.176C9.00426 122.313 8.79829 122.504 8.64773 122.752C8.49716 122.996 8.42187 123.283 8.42187 123.612C8.42187 123.97 8.50994 124.283 8.68608 124.55C8.85937 124.814 9.08665 125.019 9.3679 125.164C9.64631 125.306 9.94886 125.377 10.2756 125.377L11.0213 125.377C11.4588 125.377 11.831 125.3 12.1378 125.146C12.4446 124.99 12.679 124.773 12.8409 124.494C13 124.216 13.0795 123.891 13.0795 123.519C13.0795 123.277 13.0455 123.057 12.9773 122.858C12.9062 122.659 12.8011 122.487 12.6619 122.343C12.5227 122.198 12.3509 122.087 12.1463 122.01L12.3636 120.804C12.7187 120.901 13.0298 121.074 13.2969 121.324C13.5611 121.571 13.767 121.882 13.9148 122.257C14.0597 122.629 14.1321 123.054 14.1321 123.531ZM16.4545 119.309L7.45454 119.309L7.45454 118.065L8.51562 118.065L8.51562 117.959C8.37926 117.885 8.22159 117.778 8.04261 117.639C7.86363 117.5 7.70738 117.307 7.57386 117.059C7.4375 116.812 7.36932 116.486 7.36932 116.079C7.36932 115.551 7.50284 115.079 7.76988 114.665C8.03693 114.25 8.42187 113.925 8.92471 113.689C9.42756 113.45 10.0327 113.331 10.7401 113.331C11.4474 113.331 12.054 113.449 12.5597 113.684C13.0625 113.92 13.4503 114.244 13.723 114.656C13.9929 115.068 14.1278 115.538 14.1278 116.067C14.1278 116.464 14.0611 116.79 13.9276 117.042C13.794 117.292 13.6378 117.488 13.4588 117.631C13.2798 117.773 13.1207 117.882 12.9815 117.959L12.9815 118.035L16.4545 118.035L16.4545 119.309ZM10.7273 118.061C11.1875 118.061 11.5909 117.994 11.9375 117.861C12.2841 117.727 12.5554 117.534 12.7514 117.281C12.9446 117.028 13.0412 116.719 13.0412 116.352C13.0412 115.971 12.9403 115.653 12.7386 115.398C12.5341 115.142 12.2571 114.949 11.9077 114.818C11.5582 114.684 11.1648 114.618 10.7273 114.618C10.2955 114.618 9.90767 114.683 9.56392 114.814C9.22017 114.942 8.94886 115.135 8.75 115.393C8.55113 115.649 8.4517 115.969 8.4517 116.352C8.4517 116.721 8.54687 117.034 8.73721 117.29C8.92756 117.542 9.19318 117.734 9.53409 117.865C9.875 117.996 10.2727 118.061 10.7273 118.061ZM14.1449 109.998C14.1449 110.413 14.0682 110.788 13.9148 111.123C13.7585 111.459 13.5327 111.724 13.2372 111.92C12.9418 112.113 12.5795 112.21 12.1506 112.21C11.7812 112.21 11.4773 112.139 11.2386 111.997C11 111.855 10.8111 111.663 10.6719 111.422C10.5327 111.18 10.4276 110.91 10.3565 110.612C10.2855 110.314 10.2315 110.01 10.1946 109.7C10.1491 109.308 10.1122 108.99 10.0838 108.746C10.0526 108.501 10.0028 108.324 9.93466 108.213C9.86648 108.102 9.75568 108.047 9.60227 108.047L9.57244 108.047C9.20028 108.047 8.91193 108.152 8.70738 108.362C8.50284 108.569 8.40057 108.879 8.40057 109.291C8.40057 109.72 8.49574 110.058 8.68608 110.305C8.87358 110.55 9.08238 110.719 9.3125 110.812L9.03977 112.01C8.64204 111.868 8.32102 111.66 8.0767 111.388C7.82954 111.112 7.65057 110.795 7.53977 110.437C7.42613 110.079 7.36932 109.703 7.36932 109.308C7.36932 109.047 7.40057 108.77 7.46307 108.477C7.52273 108.182 7.63352 107.906 7.79545 107.65C7.95738 107.392 8.18892 107.18 8.49005 107.015C8.78835 106.851 9.17613 106.768 9.65341 106.768L14 106.768L14 108.013L13.1051 108.013L13.1051 108.064C13.2699 108.146 13.4318 108.27 13.5909 108.434C13.75 108.599 13.8821 108.811 13.9872 109.069C14.0923 109.328 14.1449 109.638 14.1449 109.998ZM13.1222 109.721C13.1222 109.369 13.0526 109.068 12.9134 108.818C12.7741 108.565 12.5923 108.373 12.3679 108.243C12.1406 108.109 11.8977 108.042 11.6392 108.042L10.7955 108.042C10.8409 108.088 10.8835 108.176 10.9233 108.307C10.9602 108.434 10.9929 108.581 11.0213 108.746C11.0469 108.91 11.071 109.071 11.0937 109.227C11.1136 109.383 11.1307 109.514 11.1449 109.619C11.1761 109.866 11.2287 110.092 11.3026 110.297C11.3764 110.498 11.483 110.66 11.6222 110.782C11.7585 110.902 11.9403 110.961 12.1676 110.961C12.483 110.961 12.7216 110.845 12.8835 110.612C13.0426 110.379 13.1222 110.082 13.1222 109.721ZM7.45454 102.016L8.47727 102.016L8.47727 105.591L7.45454 105.591L7.45454 102.016ZM5.88636 104.632L5.88636 103.358L12.0781 103.358C12.3253 103.358 12.5114 103.321 12.6364 103.247C12.7585 103.173 12.8423 103.078 12.8878 102.962C12.9304 102.843 12.9517 102.713 12.9517 102.574C12.9517 102.472 12.9446 102.382 12.9304 102.306C12.9162 102.229 12.9048 102.169 12.8963 102.127L13.9489 101.896C13.9773 101.97 14.0057 102.075 14.0341 102.212C14.0653 102.348 14.0824 102.519 14.0852 102.723C14.0909 103.058 14.0312 103.371 13.9062 103.661C13.7812 103.95 13.5881 104.185 13.3267 104.364C13.0653 104.543 12.7372 104.632 12.3423 104.632L5.88636 104.632ZM14.1449 98.7015C14.1449 99.1163 14.0682 99.4913 13.9148 99.8265C13.7585 100.162 13.5327 100.427 13.2372 100.623C12.9418 100.817 12.5795 100.913 12.1506 100.913C11.7812 100.913 11.4773 100.842 11.2386 100.7C11 100.558 10.8111 100.366 10.6719 100.125C10.5327 99.8833 10.4276 99.6135 10.3565 99.3152C10.2855 99.0169 10.2315 98.7129 10.1946 98.4032C10.1491 98.0112 10.1122 97.693 10.0838 97.4487C10.0526 97.2044 10.0028 97.0268 9.93466 96.916C9.86647 96.8052 9.75568 96.7498 9.60227 96.7498L9.57244 96.7498C9.20028 96.7498 8.91193 96.8549 8.70738 97.0652C8.50284 97.2725 8.40057 97.5822 8.40057 97.9941C8.40057 98.4231 8.49574 98.7612 8.68608 99.0083C8.87358 99.2527 9.08238 99.4217 9.3125 99.5154L9.03977 100.713C8.64204 100.571 8.32102 100.363 8.0767 100.091C7.82954 99.8152 7.65057 99.4984 7.53977 99.1404C7.42613 98.7825 7.36932 98.4061 7.36932 98.0112C7.36932 97.7498 7.40057 97.4728 7.46307 97.1802C7.52272 96.8848 7.63352 96.6092 7.79545 96.3535C7.95738 96.095 8.18892 95.8833 8.49005 95.7186C8.78835 95.5538 9.17613 95.4714 9.65341 95.4714L14 95.4714L14 96.7157L13.1051 96.7157L13.1051 96.7669C13.2699 96.8493 13.4318 96.9728 13.5909 97.1376C13.75 97.3024 13.8821 97.514 13.9872 97.7725C14.0923 98.0311 14.1449 98.3407 14.1449 98.7015ZM13.1222 98.4245C13.1222 98.0723 13.0526 97.7711 12.9134 97.5211C12.7741 97.2683 12.5923 97.0765 12.3679 96.9458C12.1406 96.8123 11.8977 96.7456 11.6392 96.7456L10.7955 96.7456C10.8409 96.791 10.8835 96.8791 10.9233 97.0098C10.9602 97.1376 10.9929 97.2839 11.0213 97.4487C11.0469 97.6135 11.071 97.774 11.0937 97.9302C11.1136 98.0865 11.1307 98.2172 11.1449 98.3223C11.1761 98.5694 11.2287 98.7953 11.3026 98.9998C11.3764 99.2015 11.483 99.3635 11.6222 99.4856C11.7585 99.6049 11.9403 99.6646 12.1676 99.6646C12.483 99.6646 12.7216 99.5481 12.8835 99.3152C13.0426 99.0822 13.1222 98.7853 13.1222 98.4245ZM10.1136 92.5002L14 92.5002L14 93.7743L7.45454 93.7743L7.45454 92.5513L8.51988 92.5513L8.51988 92.4703C8.17329 92.3198 7.89488 92.084 7.68466 91.763C7.47443 91.4391 7.36932 91.0314 7.36932 90.5399C7.36932 90.0939 7.46307 89.7033 7.65057 89.3681C7.83522 89.0328 8.11079 88.7729 8.47727 88.5882C8.84375 88.4036 9.29687 88.3113 9.83664 88.3113L14 88.3113L14 89.5854L9.99005 89.5854C9.51562 89.5854 9.14488 89.709 8.87784 89.9561C8.60795 90.2033 8.47301 90.5428 8.47301 90.9746C8.47301 91.2701 8.53693 91.5328 8.66477 91.763C8.79261 91.9902 8.98011 92.1706 9.22727 92.3042C9.47159 92.4348 9.76704 92.5002 10.1136 92.5002ZM14 82.5872L14 83.9849L5.27272 80.8443L5.27272 79.323L14 76.1823L14 77.5801L6.85795 80.0474L6.85795 80.1156L14 82.5872ZM10.5824 82.3528L10.5824 77.8187L11.6903 77.8187L11.6903 82.3528L10.5824 82.3528ZM10.1136 73.7502L14 73.7502L14 75.0243L7.45454 75.0243L7.45454 73.8013L8.51988 73.8013L8.51988 73.7203C8.17329 73.5698 7.89488 73.334 7.68466 73.013C7.47443 72.6891 7.36931 72.2814 7.36931 71.7899C7.36931 71.3439 7.46306 70.9533 7.65056 70.6181C7.83522 70.2828 8.11079 70.0229 8.47727 69.8382C8.84375 69.6536 9.29687 69.5613 9.83664 69.5613L14 69.5613L14 70.8354L9.99005 70.8354C9.51562 70.8354 9.14488 70.959 8.87784 71.2061C8.60795 71.4533 8.47301 71.7928 8.47301 72.2246C8.47301 72.5201 8.53693 72.7828 8.66477 73.013C8.79261 73.2402 8.98011 73.4206 9.22727 73.5542C9.47159 73.6848 9.76704 73.7502 10.1136 73.7502ZM16.5909 65.1081C16.5909 65.628 16.5227 66.0755 16.3864 66.4505C16.25 66.8226 16.0696 67.1266 15.8452 67.3624C15.6207 67.5982 15.375 67.7743 15.108 67.8908L14.6562 66.7956C14.7812 66.7189 14.9133 66.6167 15.0526 66.4888C15.1946 66.3581 15.3153 66.182 15.4148 65.9604C15.5142 65.736 15.5639 65.4476 15.5639 65.0953C15.5639 64.6124 15.446 64.2132 15.2102 63.8979C14.9773 63.5826 14.6051 63.4249 14.0937 63.4249L12.8068 63.4249L12.8068 63.5059C12.946 63.5826 13.1008 63.6934 13.2713 63.8382C13.4418 63.9803 13.5895 64.1763 13.7145 64.4263C13.8395 64.6763 13.902 65.0016 13.902 65.4022C13.902 65.9192 13.7812 66.3851 13.5398 66.7999C13.2955 67.2118 12.9361 67.5385 12.4616 67.78C11.9844 68.0186 11.3977 68.138 10.7017 68.138C10.0057 68.138 9.40909 68.0201 8.91193 67.7843C8.41477 67.5456 8.03409 67.2189 7.76988 66.8042C7.50284 66.3894 7.36931 65.9192 7.36931 65.3936C7.36931 64.9874 7.4375 64.6593 7.57386 64.4093C7.70738 64.1593 7.86363 63.9647 8.04261 63.8255C8.22159 63.6834 8.37926 63.574 8.51562 63.4973L8.51562 63.4036L7.45454 63.4036L7.45454 62.155L14.1449 62.155C14.7074 62.155 15.169 62.2857 15.5298 62.5471C15.8906 62.8084 16.1577 63.1621 16.331 63.6081C16.5043 64.0513 16.5909 64.5513 16.5909 65.1081ZM12.8452 65.1209C12.8452 64.7544 12.7599 64.4448 12.5895 64.1919C12.4162 63.9363 12.169 63.7431 11.848 63.6124C11.5241 63.4789 11.1364 63.4121 10.6847 63.4121C10.2443 63.4121 9.85653 63.4774 9.5213 63.6081C9.18608 63.7388 8.92471 63.9306 8.73721 64.1834C8.54687 64.4363 8.4517 64.7488 8.4517 65.1209C8.4517 65.5044 8.55113 65.824 8.75 66.0797C8.94602 66.3354 9.21306 66.5286 9.55113 66.6593C9.8892 66.7871 10.267 66.851 10.6847 66.851C11.1136 66.851 11.4901 66.7857 11.8139 66.655C12.1378 66.5243 12.3906 66.3311 12.5724 66.0755C12.7543 65.8169 12.8452 65.4988 12.8452 65.1209ZM14 60.4462L7.45454 60.4462L7.45454 59.1721L14 59.1721L14 60.4462ZM6.4446 59.8027C6.4446 60.0243 6.37073 60.2147 6.22301 60.3738C6.07244 60.53 5.89346 60.6081 5.68608 60.6081C5.47585 60.6081 5.29687 60.53 5.14914 60.3738C4.99858 60.2147 4.92329 60.0243 4.92329 59.8027C4.92329 59.5811 4.99858 59.3922 5.14914 59.236C5.29687 59.0769 5.47585 58.9973 5.68608 58.9973C5.89346 58.9973 6.07244 59.0769 6.22301 59.236C6.37073 59.3922 6.4446 59.5811 6.4446 59.8027ZM10.1136 56.1838L14 56.1838L14 57.4579L7.45454 57.4579L7.45454 56.2349L8.51988 56.2349L8.51988 56.1539C8.17329 56.0034 7.89488 55.7676 7.68465 55.4466C7.47443 55.1227 7.36931 54.715 7.36931 54.2235C7.36931 53.7775 7.46306 53.3869 7.65056 53.0517C7.83522 52.7164 8.11079 52.4565 8.47727 52.2718C8.84375 52.0872 9.29687 51.9948 9.83664 51.9948L14 51.9948L14 53.269L9.99005 53.269C9.51562 53.269 9.14488 53.3926 8.87784 53.6397C8.60795 53.8869 8.47301 54.2264 8.47301 54.6582C8.47301 54.9537 8.53693 55.2164 8.66477 55.4466C8.79261 55.6738 8.98011 55.8542 9.22727 55.9877C9.47159 56.1184 9.76704 56.1838 10.1136 56.1838ZM10.3778 46.7395C9.30965 46.7395 8.3267 46.5989 7.42897 46.3176C6.53125 46.0364 5.70312 45.6259 4.9446 45.0861L4.9446 43.9185C5.22585 44.1287 5.57102 44.3248 5.98011 44.5066C6.3892 44.6884 6.83806 44.8475 7.3267 44.9838C7.8125 45.1202 8.31676 45.2267 8.83948 45.3034C9.35937 45.3801 9.87215 45.4185 10.3778 45.4185C11.054 45.4185 11.7386 45.3517 12.4318 45.2182C13.125 45.0847 13.7685 44.9043 14.3622 44.677C14.956 44.4498 15.4403 44.1969 15.8153 43.9185L15.8153 45.0861C15.0568 45.6259 14.2287 46.0364 13.331 46.3176C12.4332 46.5989 11.4489 46.7395 10.3778 46.7395ZM14 42.5751L7.45454 42.5751L7.45454 41.3521L8.51988 41.3521L8.51988 41.2711C8.15909 41.1348 7.87784 40.9118 7.67613 40.6021C7.47159 40.2924 7.36931 39.9217 7.36931 39.4899C7.36931 39.0524 7.47159 38.6859 7.67613 38.3904C7.88068 38.0922 8.16193 37.872 8.51988 37.7299L8.51988 37.6618C8.17045 37.5055 7.89204 37.2569 7.68465 36.916C7.47443 36.5751 7.36931 36.1689 7.36931 35.6973C7.36931 35.1035 7.55539 34.6191 7.92755 34.2441C8.29971 33.8663 8.86079 33.6774 9.61079 33.6774L14 33.6774L14 34.9515L9.73011 34.9515C9.28693 34.9515 8.9659 35.0723 8.76704 35.3137C8.56818 35.5552 8.46875 35.8436 8.46875 36.1788C8.46875 36.5936 8.59659 36.916 8.85227 37.1461C9.10511 37.3762 9.43039 37.4913 9.82812 37.4913L14 37.4913L14 38.7612L9.64914 38.7612C9.29403 38.7612 9.00852 38.872 8.79261 39.0936C8.5767 39.3152 8.46875 39.6035 8.46875 39.9586C8.46875 40.2001 8.53267 40.4231 8.66051 40.6277C8.78551 40.8294 8.96022 40.9927 9.18465 41.1177C9.40909 41.2399 9.66903 41.301 9.96448 41.301L14 41.301L14 42.5751ZM4.86363 28.6458L15.3125 31.4583L15.3125 32.5961L4.86363 29.7836L4.86363 28.6458ZM9.05255 22.6586L9.2571 23.8134C9.10937 23.8617 8.96874 23.9384 8.83522 24.0435C8.7017 24.1458 8.59232 24.285 8.5071 24.4611C8.42187 24.6373 8.37926 24.8574 8.37926 25.1216C8.37926 25.4824 8.46022 25.7836 8.62215 26.025C8.78124 26.2665 8.98721 26.3873 9.24005 26.3873C9.4588 26.3873 9.63494 26.3063 9.76846 26.1444C9.90198 25.9824 10.0114 25.7211 10.0966 25.3603L10.3352 24.3205C10.4744 23.7182 10.6889 23.2694 10.9787 22.9739C11.2685 22.6784 11.6449 22.5307 12.1079 22.5307C12.5 22.5307 12.8494 22.6444 13.1562 22.8716C13.4602 23.0961 13.6989 23.41 13.8722 23.8134C14.0454 24.214 14.1321 24.6784 14.1321 25.2069C14.1321 25.9398 13.9758 26.5378 13.6633 27.0009C13.348 27.464 12.9006 27.748 12.321 27.8532L12.1335 26.6216C12.4545 26.5449 12.6974 26.3873 12.8622 26.1486C13.0241 25.91 13.1051 25.5989 13.1051 25.2154C13.1051 24.7978 13.0185 24.464 12.8452 24.214C12.669 23.964 12.4545 23.839 12.2017 23.839C11.9972 23.839 11.8253 23.9157 11.6861 24.0691C11.5469 24.2196 11.4418 24.4512 11.3707 24.7637L11.1278 25.8716C10.9886 26.4824 10.767 26.9341 10.4631 27.2267C10.1591 27.5165 9.77414 27.6614 9.30823 27.6614C8.92187 27.6614 8.5838 27.5534 8.29403 27.3375C8.00426 27.1216 7.7784 26.8233 7.61647 26.4426C7.4517 26.062 7.36931 25.6259 7.36931 25.1344C7.36931 24.427 7.52272 23.8702 7.82954 23.464C8.13352 23.0577 8.54119 22.7892 9.05255 22.6586ZM10.3778 18.6795C11.4489 18.6795 12.4332 18.8201 13.331 19.1014C14.2287 19.3826 15.0568 19.7931 15.8153 20.3329L15.8153 21.5005C15.5341 21.2903 15.1889 21.0943 14.7798 20.9125C14.3707 20.7306 13.9233 20.5716 13.4375 20.4352C12.9489 20.2988 12.4432 20.1923 11.9204 20.1156C11.3977 20.0389 10.8835 20.0005 10.3778 20.0005C9.70454 20.0005 9.0213 20.0673 8.32812 20.2008C7.63494 20.3343 6.99147 20.5147 6.39772 20.742C5.80397 20.9693 5.3196 21.2221 4.9446 21.5005L4.9446 20.3329C5.70312 19.7931 6.53124 19.3826 7.42897 19.1014C8.3267 18.8201 9.30965 18.6795 10.3778 18.6795Z" fill="#F9FAFB"/>
<path d="M38.057 15.1193C37.699 15.1136 37.3411 15.0455 36.9831 14.9148C36.6252 14.7841 36.2985 14.5639 36.003 14.2543C35.7076 13.9418 35.4703 13.5199 35.2914 12.9886C35.1124 12.4545 35.0229 11.7841 35.0229 10.9773C35.0229 10.2045 35.0953 9.51989 35.2402 8.9233C35.3851 8.32386 35.5953 7.8196 35.8709 7.41051C36.1465 6.99858 36.4789 6.68608 36.8681 6.47301C37.2601 6.25994 37.7019 6.15341 38.1934 6.15341C38.682 6.15341 39.1167 6.25142 39.4973 6.44744C39.8809 6.64062 40.1934 6.91051 40.4348 7.2571C40.6763 7.60369 40.8326 8.00284 40.9036 8.45455H39.8638C39.7672 8.0625 39.5797 7.73722 39.3013 7.47869C39.0229 7.22017 38.6536 7.09091 38.1934 7.09091C37.5172 7.09091 36.9846 7.38494 36.5953 7.97301C36.209 8.56108 36.0144 9.38636 36.0115 10.4489H36.0797C36.2388 10.2074 36.4277 10.0014 36.6465 9.83097C36.8681 9.65767 37.1124 9.52415 37.3794 9.4304C37.6465 9.33665 37.9292 9.28977 38.2275 9.28977C38.7275 9.28977 39.1848 9.41477 39.5996 9.66477C40.0144 9.91193 40.3468 10.2543 40.5968 10.6918C40.8468 11.1264 40.9718 11.625 40.9718 12.1875C40.9718 12.7273 40.851 13.2216 40.6096 13.6705C40.3681 14.1165 40.0286 14.4716 39.5911 14.7358C39.1564 14.9972 38.6451 15.125 38.057 15.1193ZM38.057 14.1818C38.415 14.1818 38.736 14.0923 39.0201 13.9134C39.307 13.7344 39.5328 13.4943 39.6976 13.1932C39.8652 12.892 39.949 12.5568 39.949 12.1875C39.949 11.8267 39.8681 11.4986 39.7061 11.2031C39.5471 10.9048 39.3269 10.6676 39.0456 10.4915C38.7672 10.3153 38.449 10.2273 38.0911 10.2273C37.8212 10.2273 37.5698 10.2812 37.3368 10.3892C37.1039 10.4943 36.8993 10.6392 36.7232 10.8239C36.5499 11.0085 36.4135 11.2202 36.3141 11.4588C36.2147 11.6946 36.165 11.9432 36.165 12.2045C36.165 12.5511 36.2459 12.875 36.4078 13.1761C36.5726 13.4773 36.7971 13.7202 37.0811 13.9048C37.3681 14.0895 37.6934 14.1818 38.057 14.1818Z" fill="#F9FAFB"/>
<path d="M37.9803 41.5197C37.4803 41.5197 37.03 41.4203 36.6294 41.2214C36.2289 41.0225 35.9078 40.7498 35.6664 40.4032C35.4249 40.0566 35.2928 39.6618 35.2701 39.2186H36.2928C36.3326 39.6135 36.5115 39.9402 36.8297 40.1987C37.1507 40.4544 37.5343 40.5822 37.9803 40.5822C38.3382 40.5822 38.6564 40.4984 38.9348 40.3308C39.2161 40.1632 39.4363 39.9331 39.5953 39.6404C39.7573 39.345 39.8382 39.0112 39.8382 38.639C39.8382 38.2583 39.7544 37.9189 39.5868 37.6206C39.4221 37.3194 39.1948 37.0822 38.905 36.9089C38.6152 36.7356 38.2843 36.6475 37.9121 36.6447C37.6451 36.6419 37.3709 36.6831 37.0897 36.7683C36.8084 36.8507 36.5769 36.9572 36.3951 37.0879L35.4064 36.9686L35.9348 32.6731H40.4689V33.6106H36.8212L36.5144 36.1845H36.5655C36.7445 36.0424 36.9689 35.9245 37.2388 35.8308C37.5087 35.737 37.79 35.6902 38.0826 35.6902C38.6167 35.6902 39.0925 35.818 39.5101 36.0737C39.9306 36.3265 40.2601 36.6731 40.4988 37.1135C40.7402 37.5538 40.861 38.0566 40.861 38.622C40.861 39.1788 40.736 39.676 40.486 40.1135C40.2388 40.5481 39.8979 40.8919 39.4632 41.1447C39.0286 41.3947 38.5343 41.5197 37.9803 41.5197Z" fill="#F9FAFB"/>
<path d="M34.8493 66.011V65.1417L38.6845 59.0735H39.3152V60.4201H38.889L35.9913 65.0053V65.0735H41.1561V66.011H34.8493ZM38.9572 67.8008V65.7468V65.342V59.0735H39.9629V67.8008H38.9572Z" fill="#F9FAFB"/>
<path d="M38.032 94.3185C37.4695 94.3185 36.968 94.2219 36.5277 94.0288C36.0902 93.8356 35.7422 93.5671 35.4837 93.2234C35.228 92.8768 35.0888 92.4748 35.0661 92.0174H36.1399C36.1626 92.2987 36.2592 92.5415 36.4297 92.7461C36.6001 92.9478 36.8232 93.104 37.0987 93.2148C37.3743 93.3256 37.6797 93.381 38.0149 93.381C38.3899 93.381 38.7223 93.3157 39.0121 93.185C39.3018 93.0543 39.5291 92.8725 39.6939 92.6396C39.8587 92.4066 39.9411 92.1367 39.9411 91.8299C39.9411 91.5089 39.8615 91.2262 39.7024 90.9819C39.5433 90.7347 39.3104 90.5415 39.0036 90.4023C38.6967 90.2631 38.3217 90.1935 37.8786 90.1935H37.1797V89.256H37.8786C38.2251 89.256 38.5291 89.1935 38.7905 89.0685C39.0547 88.9435 39.2607 88.7674 39.4084 88.5401C39.5589 88.3129 39.6342 88.0458 39.6342 87.739C39.6342 87.4435 39.5689 87.1864 39.4382 86.9677C39.3075 86.7489 39.1229 86.5785 38.8842 86.4563C38.6484 86.3342 38.37 86.2731 38.049 86.2731C37.7479 86.2731 37.4638 86.3285 37.1967 86.4393C36.9325 86.5472 36.7166 86.7049 36.549 86.9123C36.3814 87.1168 36.2905 87.364 36.2763 87.6538H35.2536C35.2706 87.1964 35.4084 86.7958 35.6669 86.4521C35.9254 86.1055 36.2635 85.8356 36.6811 85.6424C37.1016 85.4492 37.5632 85.3526 38.0661 85.3526C38.6058 85.3526 39.0689 85.462 39.4553 85.6808C39.8416 85.8967 40.1385 86.1822 40.3459 86.5373C40.5533 86.8924 40.657 87.2759 40.657 87.6879C40.657 88.1793 40.5277 88.5984 40.2692 88.945C40.0135 89.2915 39.6655 89.5316 39.2251 89.6651V89.7333C39.7763 89.8242 40.2067 90.0586 40.5163 90.4364C40.826 90.8114 40.9808 91.2759 40.9808 91.8299C40.9808 92.3043 40.8516 92.7305 40.593 93.1083C40.3374 93.4833 39.9879 93.7788 39.5447 93.9947C39.1016 94.2106 38.5973 94.3185 38.032 94.3185Z" fill="#F9FAFB"/>
<path d="M35.2706 120.6V119.833L38.1513 116.679C38.4893 116.31 38.7678 115.989 38.9865 115.716C39.2053 115.441 39.3672 115.182 39.4723 114.941C39.5803 114.696 39.6342 114.441 39.6342 114.173C39.6342 113.867 39.5604 113.601 39.4126 113.377C39.2678 113.152 39.0689 112.979 38.8161 112.857C38.5632 112.735 38.2791 112.673 37.9638 112.673C37.6286 112.673 37.3359 112.743 37.0859 112.882C36.8388 113.019 36.647 113.21 36.5107 113.458C36.3771 113.705 36.3104 113.994 36.3104 114.327H35.3047C35.3047 113.816 35.4226 113.367 35.6584 112.98C35.8942 112.594 36.2152 112.293 36.6214 112.077C37.0305 111.861 37.4893 111.753 37.9979 111.753C38.5092 111.753 38.9624 111.861 39.3572 112.077C39.7521 112.293 40.0618 112.584 40.2862 112.95C40.5107 113.317 40.6229 113.725 40.6229 114.173C40.6229 114.494 40.5646 114.808 40.4482 115.115C40.3345 115.419 40.1357 115.759 39.8516 116.134C39.5703 116.506 39.1797 116.96 38.6797 117.497L36.7195 119.594V119.662H40.7763V120.6H35.2706Z" fill="#F9FAFB"/>
<path d="M39.1825 138.273V147H38.1257V139.381H38.0746L35.9439 140.795V139.722L38.1257 138.273H39.1825Z" fill="#F9FAFB"/>
<rect x="55.252" y="1.63281" width="302.774" height="163.214" rx="3.5" stroke="#374151" stroke-opacity="0.8" stroke-dasharray="1 1"/>
<path d="M55.2266 90.3691H359" stroke="#374151" stroke-opacity="0.8" stroke-dasharray="2 2"/>
<path d="M55.2266 116.885H359" stroke="#374151" stroke-opacity="0.8" stroke-dasharray="2 2"/>
<path d="M55.2266 143.4H359" stroke="#374151" stroke-opacity="0.8" stroke-dasharray="2 2"/>
<path d="M55.2266 37.3359H359" stroke="#374151" stroke-opacity="0.8" stroke-dasharray="2 2"/>
<path d="M55.2266 63.8535H359" stroke="#374151" stroke-opacity="0.8" stroke-dasharray="2 2"/>
<path d="M90.3477 1L90.3476 165.214" stroke="#374151" stroke-opacity="0.8" stroke-dasharray="2 2"/>
<path d="M128.979 1L128.979 165.214" stroke="#374151" stroke-opacity="0.8" stroke-dasharray="2 2"/>
<path d="M167.609 1L167.609 165.214" stroke="#374151" stroke-opacity="0.8" stroke-dasharray="2 2"/>
<path d="M206.24 1L206.24 165.214" stroke="#374151" stroke-opacity="0.8" stroke-dasharray="2 2"/>
<path d="M244.873 1L244.873 165.214" stroke="#374151" stroke-opacity="0.8" stroke-dasharray="2 2"/>
<path d="M283.506 1L283.506 165.214" stroke="#374151" stroke-opacity="0.8" stroke-dasharray="2 2"/>
<path d="M322.137 1L322.137 165.214" stroke="#374151" stroke-opacity="0.8" stroke-dasharray="2 2"/>
<path d="M56 92.0745C64.0491 86.5823 82.6183 70.3052 92.5019 49.135C104.856 22.6723 125.634 -22.2644 143.604 18.1786C161.575 58.6216 176.175 103.059 205.938 107.553C235.701 112.046 232.332 73.1013 245.248 73.1013C258.164 73.1013 259.287 145 285.119 145C310.952 145 311.513 18.1786 357 18.1786" stroke="#1BD5A6" stroke-width="3" stroke-linecap="round"/>
<path opacity="0.2" d="M91.7444 48.2014C82.7952 67.2705 66.7719 82.3752 57.7446 89.2216L57.7445 89.2217C56.6744 90.0332 56.1393 90.439 55.8045 90.8838C55.4909 91.3003 55.2944 91.6959 55.152 92.1975C55 92.733 55 93.3528 55 94.5923V158.6C55 160.84 55 161.96 55.436 162.816C55.8195 163.569 56.4314 164.181 57.184 164.564C58.0397 165 59.1598 165 61.4 165H351.6C353.84 165 354.96 165 355.816 164.564C356.569 164.181 357.181 163.569 357.564 162.816C358 161.96 358 160.84 358 158.6V23.6014C358 21.4847 358 20.4264 357.403 19.4598C356.959 18.7412 355.915 17.9504 355.103 17.7175C354.011 17.4043 353.228 17.6244 351.663 18.0646C312.097 29.1937 310.387 144.201 285.642 144.201C259.638 144.201 258.507 72.2014 245.506 72.2014C232.504 72.2014 235.896 111.201 205.935 106.701C175.974 102.201 161.276 57.7014 143.187 17.2014C125.194 -23.0805 104.406 21.2193 91.946 47.7718L91.7444 48.2014Z" fill="#1BD5A6"/>
<g filter="url(#filter0_d_2575_9378)">
<circle cx="244.5" cy="73.5" r="12" fill="#1BD5A6"/>
<circle cx="244.5" cy="73.5" r="8.86957" stroke="#111928" stroke-opacity="0.8" stroke-width="6.26087"/>
</g>
<g filter="url(#filter1_d_2575_9378)">
<rect x="201.543" y="18" width="86" height="36" rx="4" fill="#111928" shape-rendering="crispEdges"/>
<path d="M220.037 41.1392C219.381 41.1392 218.796 41.0265 218.282 40.8011C217.772 40.5758 217.366 40.2625 217.064 39.8615C216.766 39.4571 216.604 38.9882 216.577 38.4545H217.83C217.856 38.7827 217.969 39.0661 218.168 39.3047C218.367 39.54 218.627 39.7223 218.949 39.8516C219.27 39.9808 219.626 40.0455 220.017 40.0455C220.455 40.0455 220.843 39.9692 221.181 39.8168C221.519 39.6643 221.784 39.4522 221.976 39.1804C222.168 38.9086 222.265 38.5938 222.265 38.2358C222.265 37.8613 222.172 37.5315 221.986 37.2464C221.801 36.9581 221.529 36.7327 221.171 36.5703C220.813 36.4079 220.375 36.3267 219.858 36.3267H219.043V35.233H219.858C220.263 35.233 220.617 35.16 220.922 35.0142C221.23 34.8684 221.471 34.6629 221.643 34.3977C221.819 34.1326 221.907 33.821 221.907 33.4631C221.907 33.1184 221.83 32.8184 221.678 32.5632C221.525 32.308 221.31 32.1091 221.032 31.9666C220.757 31.8241 220.432 31.7528 220.057 31.7528C219.706 31.7528 219.374 31.8175 219.063 31.9467C218.755 32.0727 218.503 32.2566 218.307 32.4986C218.112 32.7372 218.006 33.0256 217.989 33.3636H216.796C216.816 32.83 216.976 32.3627 217.278 31.9616C217.58 31.5573 217.974 31.2424 218.461 31.017C218.952 30.7917 219.49 30.679 220.077 30.679C220.707 30.679 221.247 30.8066 221.698 31.0618C222.149 31.3137 222.495 31.6468 222.737 32.0611C222.979 32.4754 223.1 32.9228 223.1 33.4034C223.1 33.9768 222.949 34.4657 222.647 34.87C222.349 35.2744 221.943 35.5545 221.429 35.7102V35.7898C222.072 35.8958 222.574 36.1693 222.936 36.6101C223.297 37.0476 223.478 37.5895 223.478 38.2358C223.478 38.7893 223.327 39.2865 223.025 39.7273C222.727 40.1648 222.319 40.5095 221.802 40.7614C221.285 41.0133 220.697 41.1392 220.037 41.1392ZM226.072 41.0795C225.826 41.0795 225.616 40.9917 225.44 40.8161C225.265 40.6404 225.177 40.4299 225.177 40.1847C225.177 39.9394 225.265 39.7289 225.44 39.5533C225.616 39.3776 225.826 39.2898 226.072 39.2898C226.317 39.2898 226.527 39.3776 226.703 39.5533C226.879 39.7289 226.966 39.9394 226.966 40.1847C226.966 40.3471 226.925 40.4962 226.842 40.6321C226.763 40.768 226.655 40.8774 226.519 40.9602C226.386 41.0398 226.237 41.0795 226.072 41.0795ZM232.077 41.1392C231.66 41.1326 231.242 41.053 230.824 40.9006C230.407 40.7481 230.026 40.4912 229.681 40.13C229.336 39.7654 229.059 39.2732 228.851 38.6534C228.642 38.0303 228.537 37.2481 228.537 36.3068C228.537 35.4053 228.622 34.6065 228.791 33.9105C228.96 33.2112 229.205 32.6229 229.527 32.1456C229.848 31.665 230.236 31.3004 230.69 31.0518C231.148 30.8033 231.663 30.679 232.236 30.679C232.806 30.679 233.314 30.7933 233.758 31.022C234.205 31.2474 234.57 31.5623 234.851 31.9666C235.133 32.371 235.315 32.8366 235.398 33.3636H234.185C234.073 32.9062 233.854 32.5268 233.529 32.2251C233.204 31.9235 232.773 31.7727 232.236 31.7727C231.448 31.7727 230.826 32.1158 230.372 32.8018C229.921 33.4879 229.694 34.4508 229.691 35.6903H229.77C229.956 35.4086 230.176 35.1683 230.432 34.9695C230.69 34.7673 230.975 34.6115 231.287 34.5021C231.598 34.3928 231.928 34.3381 232.276 34.3381C232.859 34.3381 233.393 34.4839 233.877 34.7756C234.361 35.0639 234.749 35.4633 235.04 35.9737C235.332 36.4808 235.478 37.0625 235.478 37.7188C235.478 38.3485 235.337 38.9252 235.055 39.4489C234.773 39.9692 234.377 40.3835 233.867 40.6918C233.36 40.9967 232.763 41.1458 232.077 41.1392ZM232.077 40.0455C232.495 40.0455 232.869 39.9411 233.201 39.7322C233.536 39.5234 233.799 39.2434 233.991 38.892C234.187 38.5407 234.285 38.1496 234.285 37.7188C234.285 37.2978 234.19 36.915 234.001 36.5703C233.816 36.2223 233.559 35.9455 233.231 35.7401C232.906 35.5346 232.535 35.4318 232.117 35.4318C231.802 35.4318 231.509 35.4948 231.237 35.6207C230.965 35.7434 230.727 35.9124 230.521 36.1278C230.319 36.3433 230.16 36.5902 230.044 36.8686C229.928 37.1437 229.87 37.4337 229.87 37.7386C229.87 38.143 229.964 38.5208 230.153 38.8722C230.345 39.2235 230.607 39.5069 230.939 39.7223C231.273 39.9377 231.653 40.0455 232.077 40.0455ZM240.615 41.1392C240.031 41.1392 239.506 41.0232 239.039 40.7912C238.571 40.5592 238.197 40.241 237.915 39.8366C237.633 39.4323 237.479 38.9716 237.453 38.4545H238.646C238.692 38.9152 238.901 39.2964 239.272 39.598C239.647 39.8963 240.094 40.0455 240.615 40.0455C241.032 40.0455 241.404 39.9477 241.728 39.7521C242.056 39.5566 242.313 39.2881 242.499 38.9467C242.688 38.602 242.782 38.2126 242.782 37.7784C242.782 37.3343 242.685 36.9382 242.489 36.5902C242.297 36.2389 242.032 35.9621 241.694 35.7599C241.355 35.5578 240.969 35.455 240.535 35.4517C240.224 35.4484 239.904 35.4964 239.576 35.5959C239.248 35.692 238.977 35.8163 238.765 35.9688L237.612 35.8295L238.228 30.8182H243.518V31.9119H239.262L238.904 34.9148H238.964C239.173 34.7491 239.435 34.6115 239.75 34.5021C240.065 34.3928 240.393 34.3381 240.734 34.3381C241.357 34.3381 241.912 34.4872 242.4 34.7855C242.89 35.0805 243.275 35.4848 243.553 35.9986C243.835 36.5123 243.975 37.099 243.975 37.7585C243.975 38.4081 243.83 38.9882 243.538 39.4986C243.25 40.0057 242.852 40.4067 242.345 40.7017C241.838 40.9934 241.261 41.1392 240.615 41.1392ZM249.908 41V33.3636H251.041V34.5568H251.141C251.3 34.1491 251.557 33.8326 251.911 33.6072C252.266 33.3786 252.692 33.2642 253.189 33.2642C253.693 33.2642 254.112 33.3786 254.447 33.6072C254.785 33.8326 255.048 34.1491 255.237 34.5568H255.317C255.512 34.1624 255.806 33.8492 256.197 33.6172C256.588 33.3819 257.057 33.2642 257.604 33.2642C258.287 33.2642 258.845 33.478 259.279 33.9055C259.713 34.3298 259.931 34.991 259.931 35.8892V41H258.757V35.8892C258.757 35.3258 258.603 34.9231 258.295 34.6811C257.987 34.4392 257.624 34.3182 257.206 34.3182C256.669 34.3182 256.253 34.4806 255.958 34.8054C255.663 35.1269 255.516 35.5346 255.516 36.0284V41H254.323V35.7699C254.323 35.3357 254.182 34.986 253.9 34.7209C253.618 34.4524 253.255 34.3182 252.811 34.3182C252.506 34.3182 252.221 34.3994 251.956 34.5618C251.694 34.7242 251.482 34.9496 251.32 35.2379C251.161 35.523 251.081 35.8527 251.081 36.2273V41H249.908ZM265.675 30.3409L262.394 42.5312H261.32L264.601 30.3409H265.675ZM272.475 35.0739L271.421 35.3722C271.355 35.1965 271.257 35.0258 271.128 34.8601C271.002 34.6911 270.83 34.5518 270.611 34.4425C270.392 34.3331 270.112 34.2784 269.771 34.2784C269.303 34.2784 268.914 34.3861 268.602 34.6016C268.294 34.8137 268.14 35.0838 268.14 35.4119C268.14 35.7036 268.246 35.9339 268.458 36.103C268.67 36.272 269.002 36.4129 269.452 36.5256L270.586 36.804C271.269 36.9697 271.777 37.2232 272.112 37.5646C272.447 37.9027 272.614 38.3385 272.614 38.8722C272.614 39.3097 272.488 39.7008 272.237 40.0455C271.988 40.3902 271.64 40.6619 271.192 40.8608C270.745 41.0597 270.225 41.1591 269.631 41.1591C268.853 41.1591 268.208 40.9901 267.697 40.652C267.187 40.3139 266.864 39.8201 266.728 39.1705L267.842 38.892C267.948 39.303 268.148 39.6113 268.443 39.8168C268.741 40.0223 269.131 40.125 269.612 40.125C270.158 40.125 270.593 40.009 270.914 39.777C271.239 39.5417 271.401 39.2599 271.401 38.9318C271.401 38.6667 271.308 38.4446 271.123 38.2656C270.937 38.0833 270.652 37.9474 270.268 37.858L268.995 37.5597C268.296 37.3939 267.782 37.1371 267.454 36.7891C267.129 36.4377 266.967 35.9986 266.967 35.4716C266.967 35.0407 267.088 34.6596 267.33 34.3281C267.575 33.9967 267.908 33.7365 268.329 33.5476C268.753 33.3587 269.234 33.2642 269.771 33.2642C270.526 33.2642 271.12 33.4299 271.55 33.7614C271.985 34.0928 272.293 34.5303 272.475 35.0739Z" fill="#F9FAFB"/>
<path d="M244.543 59L237.615 52.25L251.471 52.25L244.543 59Z" fill="#111928"/>
</g>
<path d="M88.0497 178.273V187H86.9929V179.381H86.9418L84.8111 180.795V179.722L86.9929 178.273H88.0497ZM90.5597 187V186.233L93.4403 183.08C93.7784 182.71 94.0568 182.389 94.2756 182.116C94.4943 181.841 94.6563 181.582 94.7614 181.341C94.8693 181.097 94.9233 180.841 94.9233 180.574C94.9233 180.267 94.8494 180.001 94.7017 179.777C94.5568 179.553 94.358 179.379 94.1051 179.257C93.8523 179.135 93.5682 179.074 93.2528 179.074C92.9176 179.074 92.625 179.143 92.375 179.283C92.1278 179.419 91.9361 179.611 91.7997 179.858C91.6662 180.105 91.5994 180.395 91.5994 180.727H90.5938C90.5938 180.216 90.7116 179.767 90.9474 179.381C91.1832 178.994 91.5043 178.693 91.9105 178.477C92.3196 178.261 92.7784 178.153 93.2869 178.153C93.7983 178.153 94.2514 178.261 94.6463 178.477C95.0412 178.693 95.3509 178.984 95.5753 179.351C95.7997 179.717 95.9119 180.125 95.9119 180.574C95.9119 180.895 95.8537 181.209 95.7372 181.516C95.6236 181.82 95.4247 182.159 95.1406 182.534C94.8594 182.906 94.4688 183.361 93.9688 183.898L92.0085 185.994V186.062H96.0653V187H90.5597Z" fill="#F9FAFB"/>
<path d="M126.528 178.273V187H125.471V179.381H125.42L123.29 180.795V179.722L125.471 178.273H126.528ZM131.987 187.119C131.425 187.119 130.923 187.023 130.483 186.83C130.045 186.636 129.697 186.368 129.439 186.024C129.183 185.678 129.044 185.276 129.021 184.818H130.095C130.118 185.099 130.214 185.342 130.385 185.547C130.555 185.749 130.778 185.905 131.054 186.016C131.329 186.126 131.635 186.182 131.97 186.182C132.345 186.182 132.677 186.116 132.967 185.986C133.257 185.855 133.484 185.673 133.649 185.44C133.814 185.207 133.896 184.938 133.896 184.631C133.896 184.31 133.817 184.027 133.657 183.783C133.498 183.536 133.265 183.342 132.959 183.203C132.652 183.064 132.277 182.994 131.834 182.994H131.135V182.057H131.834C132.18 182.057 132.484 181.994 132.746 181.869C133.01 181.744 133.216 181.568 133.363 181.341C133.514 181.114 133.589 180.847 133.589 180.54C133.589 180.244 133.524 179.987 133.393 179.768C133.263 179.55 133.078 179.379 132.839 179.257C132.604 179.135 132.325 179.074 132.004 179.074C131.703 179.074 131.419 179.129 131.152 179.24C130.888 179.348 130.672 179.506 130.504 179.713C130.336 179.918 130.246 180.165 130.231 180.455H129.209C129.226 179.997 129.363 179.597 129.622 179.253C129.881 178.906 130.219 178.636 130.636 178.443C131.057 178.25 131.518 178.153 132.021 178.153C132.561 178.153 133.024 178.263 133.41 178.482C133.797 178.697 134.094 178.983 134.301 179.338C134.508 179.693 134.612 180.077 134.612 180.489C134.612 180.98 134.483 181.399 134.224 181.746C133.969 182.092 133.621 182.332 133.18 182.466V182.534C133.731 182.625 134.162 182.859 134.471 183.237C134.781 183.612 134.936 184.077 134.936 184.631C134.936 185.105 134.807 185.531 134.548 185.909C134.292 186.284 133.943 186.58 133.5 186.795C133.057 187.011 132.552 187.119 131.987 187.119Z" fill="#F9FAFB"/>
<path d="M165.667 178.273V187H164.61V179.381H164.559L162.428 180.795V179.722L164.61 178.273H165.667ZM167.972 185.21V184.341L171.808 178.273H172.438V179.619H172.012L169.114 184.205V184.273H174.279V185.21H167.972ZM172.08 187V184.946V184.541V178.273H173.086V187H172.08Z" fill="#F9FAFB"/>
<path d="M204.532 178.273V187H203.475V179.381H203.424L201.294 180.795V179.722L203.475 178.273H204.532ZM209.769 187.119C209.269 187.119 208.819 187.02 208.419 186.821C208.018 186.622 207.697 186.349 207.455 186.003C207.214 185.656 207.082 185.261 207.059 184.818H208.082C208.122 185.213 208.301 185.54 208.619 185.798C208.94 186.054 209.323 186.182 209.769 186.182C210.127 186.182 210.445 186.098 210.724 185.93C211.005 185.763 211.225 185.533 211.384 185.24C211.546 184.945 211.627 184.611 211.627 184.239C211.627 183.858 211.544 183.518 211.376 183.22C211.211 182.919 210.984 182.682 210.694 182.509C210.404 182.335 210.073 182.247 209.701 182.244C209.434 182.241 209.16 182.283 208.879 182.368C208.597 182.45 208.366 182.557 208.184 182.688L207.195 182.568L207.724 178.273H212.258V179.21H208.61L208.303 181.784H208.355C208.534 181.642 208.758 181.524 209.028 181.43C209.298 181.337 209.579 181.29 209.872 181.29C210.406 181.29 210.882 181.418 211.299 181.673C211.72 181.926 212.049 182.273 212.288 182.713C212.529 183.153 212.65 183.656 212.65 184.222C212.65 184.778 212.525 185.276 212.275 185.713C212.028 186.148 211.687 186.491 211.252 186.744C210.818 186.994 210.323 187.119 209.769 187.119Z" fill="#F9FAFB"/>
<path d="M243.104 178.273V187H242.048V179.381H241.996L239.866 180.795V179.722L242.048 178.273H243.104ZM248.512 187.119C248.154 187.114 247.796 187.045 247.438 186.915C247.08 186.784 246.754 186.564 246.458 186.254C246.163 185.942 245.925 185.52 245.746 184.989C245.567 184.455 245.478 183.784 245.478 182.977C245.478 182.205 245.55 181.52 245.695 180.923C245.84 180.324 246.05 179.82 246.326 179.411C246.602 178.999 246.934 178.686 247.323 178.473C247.715 178.26 248.157 178.153 248.648 178.153C249.137 178.153 249.572 178.251 249.952 178.447C250.336 178.641 250.648 178.911 250.89 179.257C251.131 179.604 251.288 180.003 251.359 180.455H250.319C250.222 180.062 250.035 179.737 249.756 179.479C249.478 179.22 249.109 179.091 248.648 179.091C247.972 179.091 247.44 179.385 247.05 179.973C246.664 180.561 246.469 181.386 246.467 182.449H246.535C246.694 182.207 246.883 182.001 247.102 181.831C247.323 181.658 247.567 181.524 247.835 181.43C248.102 181.337 248.384 181.29 248.683 181.29C249.183 181.29 249.64 181.415 250.055 181.665C250.469 181.912 250.802 182.254 251.052 182.692C251.302 183.126 251.427 183.625 251.427 184.188C251.427 184.727 251.306 185.222 251.065 185.67C250.823 186.116 250.484 186.472 250.046 186.736C249.612 186.997 249.1 187.125 248.512 187.119ZM248.512 186.182C248.87 186.182 249.191 186.092 249.475 185.913C249.762 185.734 249.988 185.494 250.153 185.193C250.32 184.892 250.404 184.557 250.404 184.188C250.404 183.827 250.323 183.499 250.161 183.203C250.002 182.905 249.782 182.668 249.501 182.491C249.222 182.315 248.904 182.227 248.546 182.227C248.276 182.227 248.025 182.281 247.792 182.389C247.559 182.494 247.354 182.639 247.178 182.824C247.005 183.009 246.869 183.22 246.769 183.459C246.67 183.695 246.62 183.943 246.62 184.205C246.62 184.551 246.701 184.875 246.863 185.176C247.028 185.477 247.252 185.72 247.536 185.905C247.823 186.089 248.148 186.182 248.512 186.182Z" fill="#F9FAFB"/>
<path d="M282.089 178.273V187H281.032V179.381H280.981L278.85 180.795V179.722L281.032 178.273H282.089ZM284.871 187L288.775 179.278V179.21H284.275V178.273H289.866V179.261L285.979 187H284.871Z" fill="#F9FAFB"/>
<path d="M319.985 178.273V187H318.928V179.381H318.877L316.747 180.795V179.722L318.928 178.273H319.985ZM325.291 187.119C324.705 187.119 324.188 187.016 323.74 186.808C323.294 186.598 322.945 186.31 322.695 185.943C322.445 185.574 322.322 185.153 322.325 184.682C322.322 184.312 322.394 183.972 322.542 183.659C322.69 183.344 322.892 183.081 323.147 182.871C323.406 182.658 323.694 182.523 324.012 182.466V182.415C323.595 182.307 323.262 182.072 323.015 181.712C322.768 181.348 322.646 180.935 322.649 180.472C322.646 180.028 322.758 179.632 322.985 179.283C323.213 178.933 323.525 178.658 323.923 178.456C324.323 178.254 324.779 178.153 325.291 178.153C325.796 178.153 326.248 178.254 326.646 178.456C327.044 178.658 327.356 178.933 327.583 179.283C327.813 179.632 327.93 180.028 327.933 180.472C327.93 180.935 327.803 181.348 327.553 181.712C327.306 182.072 326.978 182.307 326.569 182.415V182.466C326.884 182.523 327.169 182.658 327.421 182.871C327.674 183.081 327.876 183.344 328.026 183.659C328.177 183.972 328.254 184.312 328.257 184.682C328.254 185.153 328.126 185.574 327.873 185.943C327.623 186.31 327.275 186.598 326.829 186.808C326.386 187.016 325.873 187.119 325.291 187.119ZM325.291 186.182C325.686 186.182 326.026 186.118 326.313 185.99C326.6 185.862 326.822 185.682 326.978 185.449C327.134 185.216 327.214 184.943 327.217 184.631C327.214 184.301 327.129 184.01 326.961 183.757C326.794 183.504 326.565 183.305 326.275 183.161C325.988 183.016 325.66 182.943 325.291 182.943C324.919 182.943 324.586 183.016 324.294 183.161C324.004 183.305 323.775 183.504 323.607 183.757C323.443 184.01 323.362 184.301 323.365 184.631C323.362 184.943 323.437 185.216 323.59 185.449C323.747 185.682 323.97 185.862 324.259 185.99C324.549 186.118 324.893 186.182 325.291 186.182ZM325.291 182.04C325.603 182.04 325.88 181.977 326.122 181.852C326.366 181.727 326.558 181.553 326.697 181.328C326.836 181.104 326.907 180.841 326.91 180.54C326.907 180.244 326.838 179.987 326.701 179.768C326.565 179.547 326.376 179.376 326.134 179.257C325.893 179.135 325.612 179.074 325.291 179.074C324.964 179.074 324.678 179.135 324.434 179.257C324.19 179.376 324.001 179.547 323.867 179.768C323.734 179.987 323.669 180.244 323.671 180.54C323.669 180.841 323.735 181.104 323.872 181.328C324.011 181.553 324.203 181.727 324.447 181.852C324.691 181.977 324.972 182.04 325.291 182.04Z" fill="#F9FAFB"/>
<path d="M198.822 210.273H200.134V216.46C200.134 217.02 200.023 217.499 199.802 217.896C199.583 218.294 199.275 218.598 198.877 218.808C198.479 219.016 198.013 219.119 197.479 219.119C196.988 219.119 196.546 219.03 196.154 218.851C195.765 218.672 195.456 218.412 195.229 218.071C195.005 217.727 194.893 217.31 194.893 216.818H196.201C196.201 217.06 196.256 217.268 196.367 217.445C196.481 217.621 196.635 217.759 196.831 217.858C197.03 217.955 197.258 218.003 197.513 218.003C197.792 218.003 198.028 217.945 198.221 217.828C198.417 217.709 198.566 217.534 198.668 217.304C198.77 217.074 198.822 216.793 198.822 216.46V210.273ZM203.853 219.145C203.438 219.145 203.063 219.068 202.728 218.915C202.393 218.759 202.127 218.533 201.931 218.237C201.738 217.942 201.642 217.58 201.642 217.151C201.642 216.781 201.713 216.477 201.855 216.239C201.997 216 202.188 215.811 202.43 215.672C202.671 215.533 202.941 215.428 203.24 215.357C203.538 215.286 203.842 215.232 204.151 215.195C204.544 215.149 204.862 215.112 205.106 215.084C205.35 215.053 205.528 215.003 205.639 214.935C205.749 214.866 205.805 214.756 205.805 214.602V214.572C205.805 214.2 205.7 213.912 205.49 213.707C205.282 213.503 204.972 213.401 204.561 213.401C204.132 213.401 203.794 213.496 203.546 213.686C203.302 213.874 203.133 214.082 203.039 214.312L201.842 214.04C201.984 213.642 202.191 213.321 202.464 213.077C202.74 212.83 203.056 212.651 203.414 212.54C203.772 212.426 204.149 212.369 204.544 212.369C204.805 212.369 205.082 212.401 205.374 212.463C205.67 212.523 205.945 212.634 206.201 212.795C206.46 212.957 206.671 213.189 206.836 213.49C207.001 213.788 207.083 214.176 207.083 214.653V219H205.839V218.105H205.788C205.705 218.27 205.582 218.432 205.417 218.591C205.252 218.75 205.041 218.882 204.782 218.987C204.524 219.092 204.214 219.145 203.853 219.145ZM204.13 218.122C204.482 218.122 204.784 218.053 205.034 217.913C205.286 217.774 205.478 217.592 205.609 217.368C205.742 217.141 205.809 216.898 205.809 216.639V215.795C205.764 215.841 205.676 215.884 205.545 215.923C205.417 215.96 205.271 215.993 205.106 216.021C204.941 216.047 204.781 216.071 204.624 216.094C204.468 216.114 204.338 216.131 204.232 216.145C203.985 216.176 203.759 216.229 203.555 216.303C203.353 216.376 203.191 216.483 203.069 216.622C202.95 216.759 202.89 216.94 202.89 217.168C202.89 217.483 203.007 217.722 203.24 217.884C203.472 218.043 203.769 218.122 204.13 218.122ZM208.78 219V212.455H210.003V213.52H210.084C210.221 213.159 210.444 212.878 210.753 212.676C211.063 212.472 211.434 212.369 211.866 212.369C212.303 212.369 212.67 212.472 212.965 212.676C213.263 212.881 213.483 213.162 213.626 213.52H213.694C213.85 213.17 214.099 212.892 214.439 212.685C214.78 212.474 215.187 212.369 215.658 212.369C216.252 212.369 216.736 212.555 217.111 212.928C217.489 213.3 217.678 213.861 217.678 214.611V219H216.404V214.73C216.404 214.287 216.283 213.966 216.042 213.767C215.8 213.568 215.512 213.469 215.177 213.469C214.762 213.469 214.439 213.597 214.209 213.852C213.979 214.105 213.864 214.43 213.864 214.828V219H212.594V214.649C212.594 214.294 212.483 214.009 212.262 213.793C212.04 213.577 211.752 213.469 211.397 213.469C211.155 213.469 210.932 213.533 210.728 213.661C210.526 213.786 210.363 213.96 210.238 214.185C210.116 214.409 210.055 214.669 210.055 214.964V219H208.78Z" fill="#F9FAFB"/>
<defs>
<filter id="filter0_d_2575_9378" x="222.065" y="55.2391" width="44.8696" height="44.8696" filterUnits="userSpaceOnUse" color-interpolation-filters="sRGB">
<feFlood flood-opacity="0" result="BackgroundImageFix"/>
<feColorMatrix in="SourceAlpha" type="matrix" values="0 0 0 0 0 0 0 0 0 0 0 0 0 0 0 0 0 0 127 0" result="hardAlpha"/>
<feOffset dy="4.17391"/>
<feGaussianBlur stdDeviation="5.21739"/>
<feComposite in2="hardAlpha" operator="out"/>
<feColorMatrix type="matrix" values="0 0 0 0 0 0 0 0 0 0 0 0 0 0 0 0 0 0 0.12 0"/>
<feBlend mode="normal" in2="BackgroundImageFix" result="effect1_dropShadow_2575_9378"/>
<feBlend mode="normal" in="SourceGraphic" in2="effect1_dropShadow_2575_9378" result="shape"/>
</filter>
<filter id="filter1_d_2575_9378" x="189.543" y="11" width="110" height="65" filterUnits="userSpaceOnUse" color-interpolation-filters="sRGB">
<feFlood flood-opacity="0" result="BackgroundImageFix"/>
<feColorMatrix in="SourceAlpha" type="matrix" values="0 0 0 0 0 0 0 0 0 0 0 0 0 0 0 0 0 0 127 0" result="hardAlpha"/>
<feOffset dy="5"/>
<feGaussianBlur stdDeviation="6"/>
<feComposite in2="hardAlpha" operator="out"/>
<feColorMatrix type="matrix" values="0 0 0 0 0 0 0 0 0 0 0 0 0 0 0 0 0 0 0.1 0"/>
<feBlend mode="normal" in2="BackgroundImageFix" result="effect1_dropShadow_2575_9378"/>
<feBlend mode="normal" in="SourceGraphic" in2="effect1_dropShadow_2575_9378" result="shape"/>
</filter>
</defs>
</svg>
