<svg width="1440" height="900" viewBox="0 0 1440 900" fill="none" xmlns="http://www.w3.org/2000/svg">
<g filter="url(#filter0_f_3189_2787)">
<path d="M1378.54 669.277C1611.19 535.414 1684.7 242.237 1542.72 14.448C1400.75 -213.341 1097.06 -289.482 864.413 -155.619L850.161 -147.418C617.513 -13.5547 544.008 279.622 685.981 507.411C827.954 735.2 1131.64 811.341 1364.29 677.478L1378.54 669.277Z" fill="url(#paint0_radial_3189_2787)"/>
<path d="M1378.54 669.277C1611.19 535.414 1684.7 242.237 1542.72 14.448C1400.75 -213.341 1097.06 -289.482 864.413 -155.619L850.161 -147.418C617.513 -13.5547 544.008 279.622 685.981 507.411C827.954 735.2 1131.64 811.341 1364.29 677.478L1378.54 669.277Z" stroke="#00E29A" stroke-width="1.51998"/>
</g>
<g style="mix-blend-mode:color-dodge" filter="url(#filter1_f_3189_2787)">
<path d="M1006.37 777.977C1196.96 846.541 1411.09 749.126 1484.64 560.394L1552.83 385.399C1626.37 196.667 1531.48 -11.9138 1340.88 -80.4785L1139.5 -152.923C948.899 -221.488 734.77 -124.073 661.228 64.6599L593.038 239.654C519.495 428.387 614.387 636.967 804.984 705.532L1006.37 777.977Z" fill="url(#paint1_radial_3189_2787)"/>
<path d="M1006.64 777.269C1196.85 845.691 1410.53 748.478 1483.92 560.136L1552.11 385.142C1625.5 196.801 1530.81 -11.3478 1340.6 -79.7703L1139.22 -152.215C949.018 -220.638 735.333 -123.424 661.943 64.9171L593.753 239.911C520.363 428.253 615.058 636.401 805.26 704.824L1006.64 777.269Z" stroke="#00E29A" stroke-width="1.51998"/>
</g>
<g style="mix-blend-mode:color-dodge" opacity="0.2" filter="url(#filter2_f_3189_2787)">
<path d="M-278.51 1404.05C-87.9123 1472.61 126.216 1375.2 199.759 1186.46L267.948 1011.47C341.491 822.737 246.599 614.156 56.0021 545.592L-145.381 473.147C-335.979 404.583 -550.107 501.998 -623.649 690.73L-691.839 865.724C-765.382 1054.46 -670.49 1263.04 -479.893 1331.6L-278.51 1404.05Z" fill="url(#paint2_radial_3189_2787)"/>
<path d="M-278.234 1403.34C-88.0313 1471.76 125.653 1374.55 199.044 1186.21L267.233 1011.21C340.623 822.871 245.929 614.723 55.7261 546.3L-145.657 473.855C-335.859 405.433 -549.544 502.646 -622.934 690.987L-691.124 865.982C-764.514 1054.32 -669.819 1262.47 -479.617 1330.89L-278.234 1403.34Z" stroke="#00E29A" stroke-width="1.51998"/>
</g>
<g style="mix-blend-mode:color-dodge" filter="url(#filter3_f_3189_2787)">
<path d="M1382.4 577.992C1573 646.557 1787.12 549.142 1860.67 360.409L1880.05 310.671C1953.59 121.939 1858.7 -86.6419 1668.1 -155.207L1596.81 -180.853C1406.21 -249.417 1192.08 -152.002 1118.54 36.7305L1099.16 86.4685C1025.62 275.201 1120.51 483.782 1311.11 552.346L1382.4 577.992Z" fill="url(#paint3_radial_3189_2787)"/>
<path d="M1382.67 577.284C1572.88 645.707 1786.56 548.493 1859.95 360.152L1879.33 310.414C1952.72 122.073 1858.03 -86.0759 1667.83 -154.498L1596.53 -180.144C1406.33 -248.567 1192.65 -151.354 1119.26 36.9878L1099.88 86.7258C1026.49 275.067 1121.18 483.216 1311.38 551.638L1382.67 577.284Z" stroke="#00E29A" stroke-width="1.51998"/>
</g>
<g style="mix-blend-mode:color-dodge" opacity="0.3" filter="url(#filter4_f_3189_2787)">
<path d="M681.29 741.953C873.742 811.185 1089.95 712.822 1164.21 522.253C1238.47 331.684 1142.66 121.073 950.203 51.8414L930.379 44.7099C737.927 -24.5219 521.715 73.8414 447.457 264.411C373.198 454.98 469.013 665.59 661.465 734.822L681.29 741.953Z" fill="url(#paint4_radial_3189_2787)"/>
<path d="M681.566 741.245C873.623 810.335 1089.39 712.173 1163.5 521.995C1237.6 331.817 1141.98 121.639 949.927 52.5496L930.103 45.418C738.046 -23.6717 522.278 74.4898 448.172 264.668C374.066 454.846 469.684 665.024 661.741 734.114L681.566 741.245Z" stroke="#00E29A" stroke-width="1.51998"/>
</g>
<g style="mix-blend-mode:screen" filter="url(#filter5_f_3189_2787)">
<path d="M1169.31 781.365C979.834 808.777 870.622 904.1 839.7 948.335C785.119 1043.05 708.94 1195.02 840.872 1045.14C1005.79 857.785 1146.29 897.739 1477.45 844.581C1742.37 802.054 1679.51 711.356 1614.96 671.322L1467.57 655.843C1447.1 686.262 1358.79 753.953 1169.31 781.365Z" fill="url(#paint5_radial_3189_2787)" fill-opacity="0.2"/>
<path d="M1169.31 781.365C979.834 808.777 870.622 904.1 839.7 948.335C785.119 1043.05 708.94 1195.02 840.872 1045.14C1005.79 857.785 1146.29 897.739 1477.45 844.581C1742.37 802.054 1679.51 711.356 1614.96 671.322L1467.57 655.843C1447.1 686.262 1358.79 753.953 1169.31 781.365Z" stroke="#00E29A" stroke-width="1.51998"/>
</g>
<defs>
<filter id="filter0_f_3189_2787" x="407.511" y="-427.775" width="1413.68" height="1377.41" filterUnits="userSpaceOnUse" color-interpolation-filters="sRGB">
<feFlood flood-opacity="0" result="BackgroundImageFix"/>
<feBlend mode="normal" in="SourceGraphic" in2="BackgroundImageFix" result="shape"/>
<feGaussianBlur stdDeviation="102.692" result="effect1_foregroundBlur_3189_2787"/>
</filter>
<filter id="filter1_f_3189_2787" x="384.76" y="-358.253" width="1376.34" height="1341.56" filterUnits="userSpaceOnUse" color-interpolation-filters="sRGB">
<feFlood flood-opacity="0" result="BackgroundImageFix"/>
<feBlend mode="normal" in="SourceGraphic" in2="BackgroundImageFix" result="shape"/>
<feGaussianBlur stdDeviation="91.6895" result="effect1_foregroundBlur_3189_2787"/>
</filter>
<filter id="filter2_f_3189_2787" x="-900.117" y="267.817" width="1376.34" height="1341.56" filterUnits="userSpaceOnUse" color-interpolation-filters="sRGB">
<feFlood flood-opacity="0" result="BackgroundImageFix"/>
<feBlend mode="normal" in="SourceGraphic" in2="BackgroundImageFix" result="shape"/>
<feGaussianBlur stdDeviation="91.6895" result="effect1_foregroundBlur_3189_2787"/>
</filter>
<filter id="filter3_f_3189_2787" x="890.883" y="-386.183" width="1197.44" height="1169.51" filterUnits="userSpaceOnUse" color-interpolation-filters="sRGB">
<feFlood flood-opacity="0" result="BackgroundImageFix"/>
<feBlend mode="normal" in="SourceGraphic" in2="BackgroundImageFix" result="shape"/>
<feGaussianBlur stdDeviation="91.6895" result="effect1_foregroundBlur_3189_2787"/>
</filter>
<filter id="filter4_f_3189_2787" x="238.936" y="-160.834" width="1133.8" height="1108.33" filterUnits="userSpaceOnUse" color-interpolation-filters="sRGB">
<feFlood flood-opacity="0" result="BackgroundImageFix"/>
<feBlend mode="normal" in="SourceGraphic" in2="BackgroundImageFix" result="shape"/>
<feGaussianBlur stdDeviation="91.6895" result="effect1_foregroundBlur_3189_2787"/>
</filter>
<filter id="filter5_f_3189_2787" x="692.475" y="580.56" width="1054.17" height="602.91" filterUnits="userSpaceOnUse" color-interpolation-filters="sRGB">
<feFlood flood-opacity="0" result="BackgroundImageFix"/>
<feBlend mode="normal" in="SourceGraphic" in2="BackgroundImageFix" result="shape"/>
<feGaussianBlur stdDeviation="37.2394" result="effect1_foregroundBlur_3189_2787"/>
</filter>
<radialGradient id="paint0_radial_3189_2787" cx="0" cy="0" r="1" gradientUnits="userSpaceOnUse" gradientTransform="translate(1058.55 349.141) rotate(-146.844) scale(515.359 508.551)">
<stop stop-color="#45AEA4"/>
<stop offset="1" stop-color="#39CABB" stop-opacity="0"/>
</radialGradient>
<radialGradient id="paint1_radial_3189_2787" cx="0" cy="0" r="1" gradientUnits="userSpaceOnUse" gradientTransform="translate(1325.74 246.869) rotate(154.166) scale(439.133 429.49)">
<stop stop-color="#5DAAAE"/>
<stop offset="1" stop-color="#484EB7" stop-opacity="0"/>
<stop offset="1" stop-color="#9FA7FF" stop-opacity="0"/>
</radialGradient>
<radialGradient id="paint2_radial_3189_2787" cx="0" cy="0" r="1" gradientUnits="userSpaceOnUse" gradientTransform="translate(40.8589 872.939) rotate(154.166) scale(439.133 429.49)">
<stop stop-color="#5DAAAE"/>
<stop offset="1" stop-color="#484EB7" stop-opacity="0"/>
<stop offset="1" stop-color="#9FA7FF" stop-opacity="0"/>
</radialGradient>
<radialGradient id="paint3_radial_3189_2787" cx="0" cy="0" r="1" gradientUnits="userSpaceOnUse" gradientTransform="translate(1705.52 142.492) rotate(154.166) scale(375.06 366.824)">
<stop stop-color="#5DAAAE"/>
<stop offset="1" stop-color="#484EB7" stop-opacity="0"/>
<stop offset="1" stop-color="#9FA7FF" stop-opacity="0"/>
</radialGradient>
<radialGradient id="paint4_radial_3189_2787" cx="0" cy="0" r="1" gradientUnits="userSpaceOnUse" gradientTransform="translate(702.297 512.013) rotate(-135.825) scale(355.318 355.932)">
<stop stop-color="#4F46E5"/>
<stop offset="1" stop-color="#F257A0"/>
</radialGradient>
<radialGradient id="paint5_radial_3189_2787" cx="0" cy="0" r="1" gradientUnits="userSpaceOnUse" gradientTransform="translate(1372.18 791.113) rotate(156.688) scale(336.791 289.017)">
<stop stop-color="#4F46E5"/>
<stop offset="1" stop-color="#484EB7" stop-opacity="0"/>
<stop offset="1" stop-color="#9FA7FF" stop-opacity="0"/>
</radialGradient>
</defs>
</svg>
